<svg xmlns="http://www.w3.org/2000/svg" xmlns:xlink="http://www.w3.org/1999/xlink" width="500" zoomAndPan="magnify" viewBox="0 0 375 374.999991" height="500" preserveAspectRatio="xMidYMid meet" version="1.0"><defs><clipPath id="aaff47ba7c"><path d="M 13.425781 19.445312 L 361.425781 19.445312 L 361.425781 367.445312 L 13.425781 367.445312 Z M 13.425781 19.445312 " clip-rule="nonzero"/></clipPath></defs><g clip-path="url(#aaff47ba7c)"><path fill="#ffffff" d="M 342.175781 261.3125 C 317.996094 261.3125 294.789062 257.445312 273.125 250.289062 C 266.351562 248.164062 258.808594 249.710938 253.394531 254.933594 L 210.839844 297.484375 C 156.097656 269.632812 111.222656 224.949219 83.371094 170.210938 L 125.921875 127.460938 C 131.339844 122.238281 132.886719 114.695312 130.757812 107.925781 C 123.601562 86.261719 119.734375 63.050781 119.734375 38.871094 C 119.734375 28.234375 111.03125 19.53125 100.390625 19.53125 L 32.691406 19.53125 C 22.050781 19.53125 13.347656 28.234375 13.347656 38.871094 C 13.347656 220.5 160.546875 367.703125 342.175781 367.703125 C 352.816406 367.703125 361.519531 358.996094 361.519531 348.359375 L 361.519531 280.65625 C 361.519531 270.019531 352.816406 261.3125 342.175781 261.3125 Z M 187.433594 19.53125 L 187.433594 212.957031 L 245.460938 154.929688 L 361.519531 154.929688 L 361.519531 19.53125 Z M 187.433594 19.53125 " fill-opacity="1" fill-rule="nonzero"/></g></svg>