<svg xmlns="http://www.w3.org/2000/svg" xmlns:xlink="http://www.w3.org/1999/xlink" width="500" zoomAndPan="magnify" viewBox="0 0 375 374.999991" height="500" preserveAspectRatio="xMidYMid meet" version="1.0"><defs><clipPath id="3176ebb8ac"><path d="M 10.089844 10.089844 L 364.839844 10.089844 L 364.839844 364.839844 L 10.089844 364.839844 Z M 10.089844 10.089844 " clip-rule="nonzero"/></clipPath></defs><g clip-path="url(#3176ebb8ac)"><path fill="#ffffff" d="M 187.5 10.089844 C 184.597656 10.089844 181.695312 10.160156 178.792969 10.304688 C 175.894531 10.445312 173 10.660156 170.109375 10.945312 C 167.21875 11.226562 164.339844 11.582031 161.46875 12.007812 C 158.597656 12.433594 155.734375 12.933594 152.886719 13.5 C 150.039062 14.066406 147.207031 14.699219 144.390625 15.40625 C 141.574219 16.113281 138.777344 16.886719 136 17.726562 C 133.222656 18.570312 130.464844 19.480469 127.730469 20.460938 C 124.996094 21.4375 122.289062 22.484375 119.609375 23.59375 C 116.925781 24.703125 114.269531 25.882812 111.648438 27.121094 C 109.023438 28.363281 106.429688 29.667969 103.867188 31.039062 C 101.308594 32.40625 98.78125 33.835938 96.292969 35.328125 C 93.800781 36.820312 91.351562 38.375 88.9375 39.988281 C 86.519531 41.601562 84.148438 43.273438 81.816406 45.003906 C 79.484375 46.730469 77.195312 48.515625 74.953125 50.359375 C 72.707031 52.203125 70.507812 54.097656 68.359375 56.046875 C 66.207031 57.996094 64.105469 60 62.050781 62.050781 C 60 64.105469 57.996094 66.207031 56.046875 68.359375 C 54.097656 70.507812 52.203125 72.707031 50.359375 74.953125 C 48.515625 77.195312 46.730469 79.484375 45.003906 81.816406 C 43.273438 84.148438 41.601562 86.519531 39.988281 88.933594 C 38.375 91.351562 36.824219 93.800781 35.328125 96.292969 C 33.835938 98.78125 32.40625 101.308594 31.039062 103.867188 C 29.667969 106.429688 28.363281 109.023438 27.121094 111.648438 C 25.882812 114.269531 24.703125 116.925781 23.59375 119.605469 C 22.484375 122.289062 21.4375 124.996094 20.460938 127.730469 C 19.480469 130.464844 18.570312 133.222656 17.726562 136 C 16.886719 138.777344 16.113281 141.574219 15.40625 144.390625 C 14.699219 147.207031 14.066406 150.039062 13.5 152.886719 C 12.933594 155.734375 12.433594 158.597656 12.007812 161.46875 C 11.582031 164.339844 11.226562 167.21875 10.945312 170.109375 C 10.660156 173 10.445312 175.894531 10.304688 178.792969 C 10.160156 181.695312 10.089844 184.597656 10.089844 187.5 C 10.089844 190.402344 10.160156 193.304688 10.304688 196.203125 C 10.445312 199.105469 10.660156 202 10.945312 204.886719 C 11.226562 207.777344 11.582031 210.660156 12.007812 213.53125 C 12.433594 216.402344 12.933594 219.261719 13.5 222.109375 C 14.066406 224.957031 14.699219 227.789062 15.40625 230.605469 C 16.113281 233.421875 16.886719 236.21875 17.726562 239 C 18.570312 241.777344 19.480469 244.535156 20.460938 247.265625 C 21.4375 250 22.484375 252.707031 23.59375 255.390625 C 24.703125 258.074219 25.882812 260.726562 27.121094 263.351562 C 28.363281 265.976562 29.667969 268.570312 31.039062 271.128906 C 32.40625 273.691406 33.835938 276.214844 35.328125 278.707031 C 36.824219 281.195312 38.375 283.648438 39.988281 286.0625 C 41.601562 288.476562 43.273438 290.851562 45.003906 293.183594 C 46.730469 295.515625 48.515625 297.804688 50.359375 300.046875 C 52.203125 302.292969 54.097656 304.488281 56.046875 306.640625 C 57.996094 308.792969 60 310.894531 62.050781 312.945312 C 64.105469 315 66.207031 317 68.359375 318.953125 C 70.507812 320.902344 72.707031 322.796875 74.953125 324.640625 C 77.195312 326.480469 79.484375 328.265625 81.816406 329.996094 C 84.148438 331.726562 86.519531 333.398438 88.9375 335.011719 C 91.351562 336.625 93.800781 338.175781 96.292969 339.667969 C 98.78125 341.160156 101.308594 342.59375 103.867188 343.960938 C 106.429688 345.328125 109.023438 346.636719 111.648438 347.875 C 114.269531 349.117188 116.925781 350.292969 119.609375 351.40625 C 122.289062 352.515625 124.996094 353.5625 127.730469 354.539062 C 130.464844 355.515625 133.222656 356.425781 136 357.269531 C 138.777344 358.113281 141.574219 358.886719 144.390625 359.59375 C 147.207031 360.296875 150.039062 360.933594 152.886719 361.5 C 155.734375 362.066406 158.597656 362.5625 161.46875 362.988281 C 164.339844 363.414062 167.21875 363.769531 170.109375 364.054688 C 173 364.339844 175.894531 364.554688 178.792969 364.695312 C 181.695312 364.839844 184.597656 364.910156 187.5 364.910156 C 190.402344 364.910156 193.304688 364.839844 196.203125 364.695312 C 199.105469 364.554688 202 364.339844 204.886719 364.054688 C 207.777344 363.769531 210.660156 363.414062 213.53125 362.988281 C 216.402344 362.5625 219.261719 362.066406 222.109375 361.5 C 224.957031 360.933594 227.789062 360.296875 230.605469 359.59375 C 233.421875 358.886719 236.21875 358.113281 239 357.269531 C 241.777344 356.425781 244.535156 355.515625 247.265625 354.539062 C 250 353.5625 252.707031 352.515625 255.390625 351.40625 C 258.074219 350.292969 260.726562 349.117188 263.351562 347.875 C 265.976562 346.636719 268.570312 345.328125 271.128906 343.960938 C 273.691406 342.59375 276.214844 341.160156 278.707031 339.667969 C 281.195312 338.175781 283.648438 336.625 286.0625 335.011719 C 288.476562 333.398438 290.851562 331.726562 293.183594 329.996094 C 295.515625 328.265625 297.804688 326.480469 300.046875 324.640625 C 302.292969 322.796875 304.488281 320.902344 306.640625 318.953125 C 308.792969 317 310.894531 315 312.949219 312.945312 C 315 310.894531 317 308.792969 318.953125 306.640625 C 320.902344 304.488281 322.796875 302.292969 324.640625 300.046875 C 326.480469 297.804688 328.265625 295.515625 329.996094 293.183594 C 331.726562 290.851562 333.398438 288.476562 335.011719 286.0625 C 336.625 283.648438 338.175781 281.195312 339.667969 278.707031 C 341.160156 276.214844 342.59375 273.691406 343.960938 271.128906 C 345.328125 268.570312 346.636719 265.976562 347.875 263.351562 C 349.117188 260.726562 350.292969 258.074219 351.40625 255.390625 C 352.515625 252.707031 353.5625 250 354.539062 247.265625 C 355.515625 244.535156 356.425781 241.777344 357.269531 239 C 358.113281 236.21875 358.886719 233.421875 359.59375 230.605469 C 360.296875 227.789062 360.933594 224.957031 361.5 222.109375 C 362.066406 219.261719 362.5625 216.402344 362.988281 213.53125 C 363.414062 210.660156 363.769531 207.777344 364.054688 204.886719 C 364.339844 202 364.554688 199.105469 364.695312 196.203125 C 364.839844 193.304688 364.910156 190.402344 364.910156 187.5 C 364.90625 184.597656 364.828125 181.695312 364.683594 178.796875 C 364.535156 175.898438 364.316406 173.007812 364.027344 170.121094 C 363.738281 167.230469 363.382812 164.351562 362.953125 161.480469 C 362.523438 158.613281 362.023438 155.753906 361.453125 152.910156 C 360.882812 150.0625 360.242188 147.234375 359.535156 144.417969 C 358.828125 141.605469 358.050781 138.808594 357.203125 136.03125 C 356.359375 133.257812 355.445312 130.503906 354.464844 127.769531 C 353.484375 125.039062 352.441406 122.332031 351.328125 119.652344 C 350.214844 116.972656 349.035156 114.320312 347.792969 111.699219 C 346.550781 109.074219 345.246094 106.484375 343.875 103.925781 C 342.503906 101.367188 341.074219 98.84375 339.582031 96.355469 C 338.085938 93.867188 336.535156 91.417969 334.921875 89.003906 C 333.308594 86.59375 331.636719 84.21875 329.90625 81.890625 C 328.175781 79.558594 326.390625 77.273438 324.550781 75.03125 C 322.707031 72.785156 320.8125 70.589844 318.863281 68.441406 C 316.914062 66.289062 314.914062 64.1875 312.863281 62.136719 C 310.808594 60.085938 308.707031 58.085938 306.558594 56.136719 C 304.410156 54.1875 302.210938 52.289062 299.96875 50.449219 C 297.726562 48.605469 295.4375 46.820312 293.109375 45.09375 C 290.777344 43.363281 288.40625 41.691406 285.992188 40.078125 C 283.582031 38.464844 281.132812 36.910156 278.644531 35.417969 C 276.15625 33.925781 273.628906 32.492188 271.070312 31.125 C 268.511719 29.753906 265.921875 28.449219 263.300781 27.203125 C 260.675781 25.960938 258.027344 24.785156 255.347656 23.671875 C 252.664062 22.558594 249.960938 21.511719 247.226562 20.53125 C 244.496094 19.550781 241.742188 18.640625 238.964844 17.792969 C 236.191406 16.949219 233.394531 16.171875 230.582031 15.464844 C 227.765625 14.753906 224.9375 14.117188 222.089844 13.546875 C 219.246094 12.976562 216.386719 12.476562 213.515625 12.046875 C 210.644531 11.617188 207.765625 11.257812 204.878906 10.96875 C 201.992188 10.679688 199.097656 10.464844 196.199219 10.316406 C 193.300781 10.167969 190.402344 10.09375 187.5 10.089844 Z M 258.464844 205.242188 L 205.242188 205.242188 L 205.242188 258.464844 C 205.242188 259.042969 205.210938 259.625 205.15625 260.203125 C 205.097656 260.78125 205.011719 261.355469 204.898438 261.925781 C 204.785156 262.496094 204.644531 263.058594 204.476562 263.613281 C 204.308594 264.167969 204.113281 264.714844 203.890625 265.253906 C 203.667969 265.789062 203.417969 266.3125 203.144531 266.828125 C 202.871094 267.339844 202.574219 267.835938 202.25 268.320312 C 201.925781 268.804688 201.582031 269.269531 201.214844 269.71875 C 200.84375 270.167969 200.453125 270.597656 200.042969 271.007812 C 199.632812 271.417969 199.203125 271.808594 198.753906 272.175781 C 198.304688 272.546875 197.839844 272.890625 197.355469 273.214844 C 196.871094 273.539062 196.375 273.835938 195.863281 274.109375 C 195.351562 274.382812 194.824219 274.632812 194.289062 274.855469 C 193.75 275.078125 193.207031 275.273438 192.648438 275.441406 C 192.09375 275.609375 191.53125 275.75 190.960938 275.863281 C 190.390625 275.976562 189.816406 276.0625 189.238281 276.117188 C 188.660156 276.175781 188.082031 276.203125 187.5 276.203125 C 186.917969 276.203125 186.339844 276.175781 185.761719 276.117188 C 185.183594 276.0625 184.609375 275.976562 184.039062 275.863281 C 183.46875 275.75 182.90625 275.609375 182.347656 275.441406 C 181.792969 275.273438 181.246094 275.078125 180.710938 274.855469 C 180.171875 274.632812 179.648438 274.382812 179.136719 274.109375 C 178.625 273.835938 178.125 273.539062 177.644531 273.214844 C 177.160156 272.890625 176.695312 272.546875 176.246094 272.175781 C 175.796875 271.808594 175.367188 271.417969 174.953125 271.007812 C 174.542969 270.597656 174.152344 270.167969 173.785156 269.71875 C 173.417969 269.269531 173.070312 268.804688 172.75 268.320312 C 172.425781 267.835938 172.128906 267.339844 171.851562 266.828125 C 171.578125 266.3125 171.332031 265.789062 171.109375 265.253906 C 170.886719 264.714844 170.691406 264.167969 170.523438 263.613281 C 170.355469 263.058594 170.210938 262.496094 170.097656 261.925781 C 169.984375 261.355469 169.902344 260.78125 169.84375 260.203125 C 169.785156 259.625 169.757812 259.042969 169.757812 258.464844 L 169.757812 205.242188 L 116.535156 205.242188 C 115.953125 205.242188 115.375 205.210938 114.796875 205.15625 C 114.21875 205.097656 113.644531 205.011719 113.074219 204.898438 C 112.503906 204.785156 111.941406 204.644531 111.386719 204.476562 C 110.828125 204.308594 110.28125 204.113281 109.746094 203.890625 C 109.210938 203.667969 108.683594 203.417969 108.171875 203.144531 C 107.660156 202.871094 107.160156 202.574219 106.679688 202.25 C 106.195312 201.925781 105.730469 201.582031 105.28125 201.214844 C 104.832031 200.84375 104.402344 200.453125 103.992188 200.042969 C 103.578125 199.632812 103.191406 199.203125 102.820312 198.753906 C 102.453125 198.304688 102.105469 197.839844 101.785156 197.355469 C 101.460938 196.871094 101.164062 196.375 100.890625 195.863281 C 100.613281 195.351562 100.367188 194.824219 100.144531 194.289062 C 99.921875 193.75 99.726562 193.207031 99.558594 192.648438 C 99.390625 192.09375 99.25 191.53125 99.136719 190.960938 C 99.023438 190.390625 98.9375 189.816406 98.878906 189.238281 C 98.824219 188.660156 98.792969 188.082031 98.792969 187.5 C 98.792969 186.917969 98.824219 186.339844 98.878906 185.761719 C 98.9375 185.183594 99.023438 184.609375 99.136719 184.039062 C 99.25 183.46875 99.390625 182.90625 99.558594 182.347656 C 99.726562 181.792969 99.921875 181.246094 100.144531 180.710938 C 100.367188 180.171875 100.613281 179.648438 100.890625 179.136719 C 101.164062 178.625 101.460938 178.125 101.785156 177.644531 C 102.105469 177.160156 102.453125 176.695312 102.820312 176.246094 C 103.191406 175.796875 103.578125 175.367188 103.992188 174.953125 C 104.402344 174.542969 104.832031 174.152344 105.28125 173.785156 C 105.730469 173.417969 106.195312 173.070312 106.679688 172.75 C 107.160156 172.425781 107.660156 172.128906 108.171875 171.851562 C 108.683594 171.578125 109.210938 171.332031 109.746094 171.109375 C 110.28125 170.886719 110.828125 170.691406 111.386719 170.523438 C 111.941406 170.355469 112.503906 170.210938 113.074219 170.097656 C 113.644531 169.984375 114.21875 169.902344 114.796875 169.84375 C 115.375 169.785156 115.953125 169.757812 116.535156 169.757812 L 169.757812 169.757812 L 169.757812 116.535156 C 169.757812 115.953125 169.785156 115.375 169.84375 114.796875 C 169.902344 114.21875 169.984375 113.644531 170.097656 113.074219 C 170.210938 112.503906 170.355469 111.941406 170.523438 111.386719 C 170.691406 110.828125 170.886719 110.28125 171.109375 109.746094 C 171.332031 109.210938 171.578125 108.683594 171.851562 108.171875 C 172.128906 107.660156 172.425781 107.160156 172.75 106.679688 C 173.070312 106.195312 173.417969 105.730469 173.785156 105.28125 C 174.152344 104.832031 174.542969 104.402344 174.953125 103.992188 C 175.367188 103.578125 175.796875 103.191406 176.246094 102.820312 C 176.695312 102.453125 177.160156 102.105469 177.644531 101.785156 C 178.125 101.460938 178.625 101.164062 179.136719 100.890625 C 179.648438 100.613281 180.171875 100.367188 180.710938 100.144531 C 181.246094 99.921875 181.792969 99.726562 182.347656 99.558594 C 182.90625 99.390625 183.46875 99.25 184.039062 99.136719 C 184.609375 99.023438 185.183594 98.9375 185.761719 98.878906 C 186.339844 98.824219 186.917969 98.792969 187.5 98.792969 C 188.082031 98.792969 188.660156 98.824219 189.238281 98.878906 C 189.816406 98.9375 190.390625 99.023438 190.960938 99.136719 C 191.53125 99.25 192.09375 99.390625 192.648438 99.558594 C 193.207031 99.726562 193.75 99.921875 194.289062 100.144531 C 194.824219 100.367188 195.351562 100.613281 195.863281 100.890625 C 196.375 101.164062 196.871094 101.460938 197.355469 101.785156 C 197.839844 102.105469 198.304688 102.453125 198.753906 102.820312 C 199.203125 103.191406 199.632812 103.578125 200.042969 103.992188 C 200.453125 104.402344 200.84375 104.832031 201.214844 105.28125 C 201.582031 105.730469 201.925781 106.195312 202.25 106.679688 C 202.574219 107.160156 202.871094 107.660156 203.144531 108.171875 C 203.417969 108.683594 203.667969 109.210938 203.890625 109.746094 C 204.113281 110.28125 204.308594 110.828125 204.476562 111.386719 C 204.644531 111.941406 204.785156 112.503906 204.898438 113.074219 C 205.011719 113.644531 205.097656 114.21875 205.15625 114.796875 C 205.210938 115.375 205.242188 115.953125 205.242188 116.535156 L 205.242188 169.757812 L 258.464844 169.757812 C 259.042969 169.757812 259.625 169.785156 260.203125 169.84375 C 260.78125 169.902344 261.355469 169.984375 261.925781 170.097656 C 262.496094 170.210938 263.058594 170.355469 263.613281 170.523438 C 264.167969 170.691406 264.714844 170.886719 265.253906 171.109375 C 265.789062 171.332031 266.3125 171.578125 266.828125 171.851562 C 267.339844 172.128906 267.835938 172.425781 268.320312 172.75 C 268.804688 173.070312 269.269531 173.417969 269.71875 173.785156 C 270.167969 174.152344 270.597656 174.542969 271.007812 174.953125 C 271.417969 175.367188 271.808594 175.796875 272.175781 176.246094 C 272.546875 176.695312 272.890625 177.160156 273.214844 177.644531 C 273.539062 178.125 273.835938 178.625 274.109375 179.136719 C 274.382812 179.648438 274.632812 180.171875 274.855469 180.710938 C 275.078125 181.246094 275.273438 181.792969 275.441406 182.347656 C 275.609375 182.90625 275.75 183.46875 275.863281 184.039062 C 275.976562 184.609375 276.0625 185.183594 276.117188 185.761719 C 276.175781 186.339844 276.203125 186.917969 276.203125 187.5 C 276.203125 188.082031 276.175781 188.660156 276.117188 189.238281 C 276.0625 189.816406 275.976562 190.390625 275.863281 190.960938 C 275.75 191.53125 275.609375 192.09375 275.441406 192.648438 C 275.273438 193.207031 275.078125 193.75 274.855469 194.289062 C 274.632812 194.824219 274.382812 195.351562 274.109375 195.863281 C 273.835938 196.375 273.539062 196.871094 273.214844 197.355469 C 272.890625 197.839844 272.546875 198.304688 272.175781 198.753906 C 271.808594 199.203125 271.417969 199.632812 271.007812 200.042969 C 270.597656 200.453125 270.167969 200.84375 269.71875 201.214844 C 269.269531 201.582031 268.804688 201.925781 268.320312 202.25 C 267.835938 202.574219 267.339844 202.871094 266.828125 203.144531 C 266.3125 203.417969 265.789062 203.667969 265.253906 203.890625 C 264.714844 204.113281 264.167969 204.308594 263.613281 204.476562 C 263.058594 204.644531 262.496094 204.785156 261.925781 204.898438 C 261.355469 205.011719 260.78125 205.097656 260.203125 205.15625 C 259.625 205.210938 259.042969 205.242188 258.464844 205.242188 Z M 258.464844 205.242188 " fill-opacity="1" fill-rule="nonzero"/></g></svg>