<svg xmlns="http://www.w3.org/2000/svg" xmlns:xlink="http://www.w3.org/1999/xlink" width="500" zoomAndPan="magnify" viewBox="0 0 375 374.999991" height="500" preserveAspectRatio="xMidYMid meet" version="1.0"><defs><clipPath id="1794be643b"><path d="M 54 109 L 332 109 L 332 359.859375 L 54 359.859375 Z M 54 109 " clip-rule="nonzero"/></clipPath></defs><path fill="#ffffff" d="M 359.675781 144.835938 L 303.507812 103.515625 L 303.507812 54.234375 C 303.507812 46.503906 297.234375 40.257812 289.519531 40.257812 L 266.785156 40.257812 C 259.058594 40.257812 252.796875 46.515625 252.796875 54.234375 L 252.796875 66.207031 L 209.972656 34.707031 C 200.679688 27.855469 185.464844 27.855469 176.171875 34.707031 L 26.46875 144.835938 C 17.179688 151.675781 15.175781 164.886719 22.015625 174.1875 L 26.152344 179.804688 C 32.980469 189.105469 46.191406 191.121094 55.472656 184.28125 L 176.171875 95.453125 C 185.464844 88.609375 200.679688 88.609375 209.972656 95.453125 L 330.660156 184.28125 C 339.953125 191.121094 353.152344 189.09375 359.980469 179.804688 L 364.128906 174.1875 C 370.960938 164.886719 368.957031 151.675781 359.675781 144.835938 Z M 359.675781 144.835938 " fill-opacity="1" fill-rule="nonzero"/><g clip-path="url(#1794be643b)"><path fill="#ffffff" d="M 314.890625 192.007812 L 209.9375 114.441406 C 200.65625 107.578125 185.488281 107.578125 176.207031 114.441406 L 71.257812 192.007812 C 61.976562 198.867188 54.378906 208.90625 54.378906 214.34375 L 54.378906 326.804688 C 54.378906 345.058594 70.03125 359.867188 89.347656 359.867188 L 153.441406 359.867188 L 153.441406 260.390625 C 153.441406 252.707031 159.734375 246.425781 167.417969 246.425781 L 218.707031 246.425781 C 226.390625 246.425781 232.683594 252.707031 232.683594 260.390625 L 232.683594 359.867188 L 296.785156 359.867188 C 316.09375 359.867188 331.734375 345.058594 331.734375 326.804688 L 331.734375 214.34375 C 331.742188 208.90625 324.171875 198.867188 314.890625 192.007812 Z M 314.890625 192.007812 " fill-opacity="1" fill-rule="nonzero"/></g></svg>