<svg xmlns="http://www.w3.org/2000/svg" xmlns:xlink="http://www.w3.org/1999/xlink" width="500" zoomAndPan="magnify" viewBox="0 0 375 374.999991" height="500" preserveAspectRatio="xMidYMid meet" version="1.0"><defs><clipPath id="c4497e91f4"><path d="M 28.0625 20.726562 L 337.8125 20.726562 L 337.8125 343.226562 L 28.0625 343.226562 Z M 28.0625 20.726562 " clip-rule="nonzero"/></clipPath></defs><rect x="-37.5" width="450" fill="#ffffff" y="-37.499999" height="449.999989" fill-opacity="1"/><rect x="-37.5" width="450" fill="#ffffff" y="-37.499999" height="449.999989" fill-opacity="1"/><g clip-path="url(#c4497e91f4)"><path fill="#000000" d="M 241.628906 293.492188 L 313.675781 317.191406 L 294.855469 244.082031 L 296.628906 241.050781 C 308.75 220.417969 315.15625 196.835938 315.15625 172.851562 C 315.15625 98.4375 254.582031 37.894531 180.132812 37.894531 C 105.675781 37.894531 45.105469 98.4375 45.105469 172.851562 C 45.105469 247.265625 105.675781 307.808594 180.132812 307.808594 C 200.460938 307.808594 238.519531 294.582031 238.902344 294.449219 Z M 337.902344 343.0625 L 241.757812 311.433594 C 232.136719 314.644531 200.109375 324.8125 180.132812 324.8125 C 96.300781 324.8125 28.09375 256.644531 28.09375 172.851562 C 28.09375 89.058594 96.300781 20.890625 180.132812 20.890625 C 263.960938 20.890625 332.167969 89.058594 332.167969 172.851562 C 332.167969 198.675781 325.570312 224.085938 313.0625 246.578125 L 337.902344 343.0625 " fill-opacity="1" fill-rule="nonzero"/></g></svg>