<svg xmlns="http://www.w3.org/2000/svg" xmlns:xlink="http://www.w3.org/1999/xlink" width="500" zoomAndPan="magnify" viewBox="0 0 375 374.999991" height="500" preserveAspectRatio="xMidYMid meet" version="1.0"><defs><clipPath id="d1ce7d6110"><path d="M 198.945312 59.761719 L 291.195312 59.761719 L 291.195312 152.011719 L 198.945312 152.011719 Z M 198.945312 59.761719 " clip-rule="nonzero"/></clipPath><clipPath id="a61f203f25"><path d="M 129.832031 184.046875 L 245.210938 184.046875 L 245.210938 319.160156 L 129.832031 319.160156 Z M 129.832031 184.046875 " clip-rule="nonzero"/></clipPath></defs><g clip-path="url(#d1ce7d6110)"><path fill="#ffffff" d="M 245.164062 152.199219 C 219.679688 152.199219 198.945312 131.464844 198.945312 105.980469 C 198.945312 80.496094 219.679688 59.761719 245.164062 59.761719 C 270.648438 59.761719 291.382812 80.496094 291.382812 105.980469 C 291.382812 131.464844 270.648438 152.199219 245.164062 152.199219 Z M 245.164062 68.523438 C 224.507812 68.523438 207.703125 85.328125 207.703125 105.980469 C 207.703125 126.636719 224.507812 143.441406 245.164062 143.441406 C 265.816406 143.441406 282.621094 126.636719 282.621094 105.980469 C 282.621094 85.328125 265.816406 68.523438 245.164062 68.523438 Z M 245.164062 68.523438 " fill-opacity="1" fill-rule="nonzero"/></g><path fill="#ffffff" d="M 245.339844 130.433594 L 244.984375 130.433594 C 241.933594 130.433594 239.4375 127.9375 239.4375 124.886719 L 239.4375 87.074219 C 239.4375 84.023438 241.933594 81.53125 244.984375 81.53125 L 245.339844 81.53125 C 248.390625 81.53125 250.886719 84.023438 250.886719 87.074219 L 250.886719 124.886719 C 250.886719 127.9375 248.390625 130.433594 245.339844 130.433594 Z M 245.339844 130.433594 " fill-opacity="1" fill-rule="nonzero"/><path fill="#ffffff" d="M 220.710938 105.917969 L 220.710938 106.273438 C 220.726562 109.324219 223.234375 111.808594 226.285156 111.792969 L 264.09375 111.617188 C 267.144531 111.605469 269.628906 109.097656 269.617188 106.046875 L 269.613281 105.691406 C 269.601562 102.640625 267.09375 100.15625 264.042969 100.171875 L 226.230469 100.34375 C 223.179688 100.359375 220.695312 102.867188 220.710938 105.917969 Z M 220.710938 105.917969 " fill-opacity="1" fill-rule="nonzero"/><path fill="#ffffff" d="M 204.71875 157.175781 C 204.71875 159.199219 206.34375 160.839844 208.34375 160.839844 L 225.230469 160.839844 L 225.230469 171.808594 L 208.34375 171.808594 C 207.347656 171.808594 206.441406 172.21875 205.785156 172.882812 C 205.128906 173.546875 204.71875 174.460938 204.71875 175.472656 C 204.71875 177.496094 206.34375 179.140625 208.34375 179.140625 L 225.230469 179.140625 L 225.230469 190.105469 L 208.34375 190.105469 C 207.347656 190.105469 206.441406 190.519531 205.785156 191.179688 C 205.128906 191.84375 204.71875 192.757812 204.71875 193.773438 C 204.71875 195.796875 206.34375 197.4375 208.34375 197.4375 L 225.230469 197.4375 L 225.230469 212.480469 C 225.230469 233.53125 208.34375 250.597656 187.523438 250.597656 C 166.699219 250.597656 149.820312 233.53125 149.820312 212.480469 L 149.820312 197.4375 L 166.65625 197.4375 C 168.660156 197.4375 170.28125 195.796875 170.28125 193.773438 C 170.28125 192.757812 169.878906 191.84375 169.222656 191.179688 C 168.566406 190.519531 167.660156 190.105469 166.65625 190.105469 L 149.820312 190.105469 L 149.820312 179.140625 L 166.65625 179.140625 C 168.660156 179.140625 170.28125 177.496094 170.28125 175.472656 C 170.28125 174.460938 169.878906 173.546875 169.222656 172.882812 C 168.566406 172.21875 167.660156 171.808594 166.65625 171.808594 L 149.820312 171.808594 L 149.820312 160.839844 L 166.65625 160.839844 C 168.660156 160.839844 170.28125 159.199219 170.28125 157.175781 C 170.28125 155.152344 168.660156 153.511719 166.65625 153.511719 L 149.820312 153.511719 L 149.820312 144.5 C 149.820312 123.449219 166.699219 106.382812 187.523438 106.382812 C 197.933594 106.382812 207.359375 110.652344 214.183594 117.546875 C 221.007812 124.445312 225.230469 133.976562 225.230469 144.5 L 225.230469 153.511719 L 208.34375 153.511719 C 206.34375 153.511719 204.71875 155.152344 204.71875 157.175781 " fill-opacity="1" fill-rule="nonzero"/><g clip-path="url(#a61f203f25)"><path fill="#ffffff" d="M 240.308594 184.652344 C 237.601562 184.652344 235.40625 186.875 235.40625 189.609375 L 235.40625 212.480469 C 235.40625 219.011719 234.140625 225.351562 231.640625 231.328125 C 229.226562 237.089844 225.777344 242.269531 221.378906 246.710938 C 216.988281 251.15625 211.867188 254.640625 206.167969 257.082031 C 200.257812 259.609375 193.980469 260.886719 187.519531 260.886719 C 181.0625 260.886719 174.785156 259.609375 168.882812 257.082031 C 163.175781 254.640625 158.054688 251.15625 153.664062 246.710938 C 149.265625 242.269531 145.816406 237.089844 143.40625 231.328125 C 140.902344 225.351562 139.636719 219.011719 139.636719 212.480469 L 139.636719 189.609375 C 139.636719 186.875 137.441406 184.652344 134.734375 184.652344 C 132.027344 184.652344 129.832031 186.875 129.832031 189.609375 L 129.832031 212.480469 C 129.832031 220.34375 131.363281 227.980469 134.375 235.1875 C 137.28125 242.132812 141.4375 248.371094 146.730469 253.71875 C 152.019531 259.066406 158.1875 263.269531 165.0625 266.210938 C 170.679688 268.613281 176.566406 270.082031 182.621094 270.589844 L 182.621094 308.714844 C 182.621094 308.894531 182.632812 309.074219 182.648438 309.25 L 151.523438 309.25 C 148.816406 309.25 146.621094 311.46875 146.621094 314.207031 C 146.621094 316.941406 148.816406 319.160156 151.523438 319.160156 L 223.519531 319.160156 C 226.226562 319.160156 228.421875 316.941406 228.421875 314.207031 C 228.421875 311.46875 226.226562 309.25 223.519531 309.25 L 192.394531 309.25 C 192.414062 309.074219 192.421875 308.894531 192.421875 308.714844 L 192.421875 270.589844 C 198.476562 270.082031 204.367188 268.613281 209.984375 266.210938 C 216.855469 263.269531 223.023438 259.066406 228.3125 253.71875 C 233.605469 248.371094 237.761719 242.132812 240.667969 235.1875 C 243.679688 227.980469 245.210938 220.34375 245.210938 212.480469 L 245.210938 189.609375 C 245.210938 186.875 243.015625 184.652344 240.308594 184.652344 " fill-opacity="1" fill-rule="nonzero"/></g></svg>