<svg xmlns="http://www.w3.org/2000/svg" xmlns:xlink="http://www.w3.org/1999/xlink" width="500" zoomAndPan="magnify" viewBox="0 0 375 374.999991" height="500" preserveAspectRatio="xMidYMid meet" version="1.0"><defs><clipPath id="ac7204274b"><path d="M 26.109375 18.988281 L 356 18.988281 L 356 348.988281 L 26.109375 348.988281 Z M 26.109375 18.988281 " clip-rule="nonzero"/></clipPath><clipPath id="99bc1c938c"><path d="M 198.945312 59.761719 L 291.195312 59.761719 L 291.195312 152.011719 L 198.945312 152.011719 Z M 198.945312 59.761719 " clip-rule="nonzero"/></clipPath><clipPath id="6165bc4cef"><path d="M 129.832031 184.046875 L 245.210938 184.046875 L 245.210938 319.160156 L 129.832031 319.160156 Z M 129.832031 184.046875 " clip-rule="nonzero"/></clipPath></defs><g clip-path="url(#ac7204274b)"><path fill="#f09e7a" d="M 355.996094 183.933594 C 355.996094 186.632812 355.929688 189.328125 355.796875 192.027344 C 355.667969 194.722656 355.46875 197.414062 355.203125 200.097656 C 354.9375 202.785156 354.609375 205.464844 354.210938 208.132812 C 353.816406 210.804688 353.355469 213.464844 352.828125 216.109375 C 352.300781 218.757812 351.710938 221.390625 351.054688 224.011719 C 350.398438 226.628906 349.679688 229.230469 348.894531 231.8125 C 348.109375 234.394531 347.265625 236.957031 346.355469 239.5 C 345.445312 242.042969 344.472656 244.558594 343.441406 247.054688 C 342.410156 249.546875 341.316406 252.015625 340.160156 254.453125 C 339.007812 256.894531 337.792969 259.304688 336.519531 261.6875 C 335.25 264.066406 333.917969 266.414062 332.53125 268.730469 C 331.140625 271.046875 329.699219 273.324219 328.199219 275.570312 C 326.699219 277.816406 325.144531 280.019531 323.539062 282.191406 C 321.929688 284.359375 320.269531 286.484375 318.554688 288.570312 C 316.84375 290.660156 315.082031 292.703125 313.269531 294.703125 C 311.457031 296.703125 309.59375 298.65625 307.6875 300.566406 C 305.777344 302.472656 303.824219 304.335938 301.824219 306.148438 C 299.824219 307.960938 297.777344 309.722656 295.691406 311.4375 C 293.605469 313.148438 291.476562 314.808594 289.308594 316.417969 C 287.140625 318.023438 284.933594 319.578125 282.691406 321.078125 C 280.445312 322.578125 278.167969 324.023438 275.851562 325.410156 C 273.535156 326.796875 271.1875 328.128906 268.808594 329.398438 C 266.425781 330.671875 264.015625 331.886719 261.574219 333.039062 C 259.136719 334.195312 256.667969 335.289062 254.175781 336.320312 C 251.679688 337.355469 249.164062 338.324219 246.621094 339.234375 C 244.078125 340.144531 241.515625 340.992188 238.933594 341.773438 C 236.351562 342.558594 233.75 343.277344 231.128906 343.933594 C 228.511719 344.589844 225.878906 345.179688 223.230469 345.707031 C 220.582031 346.234375 217.925781 346.695312 215.253906 347.089844 C 212.585938 347.488281 209.90625 347.816406 207.21875 348.082031 C 204.535156 348.347656 201.84375 348.546875 199.144531 348.679688 C 196.449219 348.8125 193.75 348.875 191.050781 348.875 C 188.351562 348.875 185.65625 348.8125 182.957031 348.679688 C 180.261719 348.546875 177.570312 348.347656 174.886719 348.082031 C 172.199219 347.816406 169.519531 347.488281 166.851562 347.089844 C 164.179688 346.695312 161.519531 346.234375 158.875 345.707031 C 156.226562 345.179688 153.59375 344.589844 150.972656 343.933594 C 148.355469 343.277344 145.753906 342.558594 143.171875 341.773438 C 140.589844 340.992188 138.027344 340.144531 135.484375 339.234375 C 132.941406 338.324219 130.425781 337.355469 127.929688 336.320312 C 125.4375 335.289062 122.96875 334.195312 120.53125 333.039062 C 118.089844 331.886719 115.679688 330.671875 113.296875 329.398438 C 110.917969 328.128906 108.570312 326.796875 106.253906 325.410156 C 103.9375 324.023438 101.660156 322.578125 99.414062 321.078125 C 97.167969 319.578125 94.964844 318.023438 92.792969 316.417969 C 90.625 314.808594 88.5 313.148438 86.414062 311.4375 C 84.324219 309.722656 82.28125 307.960938 80.28125 306.148438 C 78.28125 304.335938 76.328125 302.472656 74.417969 300.566406 C 72.511719 298.65625 70.648438 296.703125 68.835938 294.703125 C 67.023438 292.703125 65.261719 290.660156 63.546875 288.570312 C 61.835938 286.484375 60.175781 284.359375 58.566406 282.191406 C 56.960938 280.019531 55.40625 277.816406 53.90625 275.570312 C 52.40625 273.324219 50.960938 271.046875 49.574219 268.730469 C 48.1875 266.414062 46.855469 264.066406 45.585938 261.6875 C 44.3125 259.304688 43.097656 256.894531 41.945312 254.453125 C 40.789062 252.015625 39.695312 249.546875 38.664062 247.054688 C 37.628906 244.558594 36.660156 242.042969 35.75 239.5 C 34.839844 236.957031 33.992188 234.394531 33.210938 231.8125 C 32.425781 229.230469 31.707031 226.628906 31.050781 224.011719 C 30.394531 221.390625 29.804688 218.757812 29.277344 216.109375 C 28.75 213.464844 28.289062 210.804688 27.894531 208.132812 C 27.496094 205.464844 27.167969 202.785156 26.902344 200.097656 C 26.636719 197.414062 26.4375 194.722656 26.304688 192.027344 C 26.171875 189.328125 26.109375 186.632812 26.109375 183.933594 C 26.109375 181.234375 26.171875 178.535156 26.304688 175.839844 C 26.4375 173.140625 26.636719 170.449219 26.902344 167.765625 C 27.167969 165.078125 27.496094 162.398438 27.894531 159.730469 C 28.289062 157.058594 28.75 154.402344 29.277344 151.753906 C 29.804688 149.105469 30.394531 146.472656 31.050781 143.855469 C 31.707031 141.234375 32.425781 138.632812 33.210938 136.050781 C 33.992188 133.46875 34.839844 130.90625 35.75 128.363281 C 36.660156 125.820312 37.628906 123.304688 38.664062 120.808594 C 39.695312 118.316406 40.789062 115.847656 41.945312 113.410156 C 43.097656 110.96875 44.3125 108.558594 45.585938 106.175781 C 46.855469 103.796875 48.1875 101.449219 49.574219 99.132812 C 50.960938 96.816406 52.40625 94.539062 53.90625 92.292969 C 55.40625 90.050781 56.960938 87.84375 58.566406 85.675781 C 60.175781 83.507812 61.835938 81.378906 63.546875 79.292969 C 65.261719 77.207031 67.023438 75.160156 68.835938 73.160156 C 70.648438 71.160156 72.511719 69.207031 74.417969 67.296875 C 76.328125 65.390625 78.28125 63.527344 80.28125 61.714844 C 82.28125 59.902344 84.324219 58.140625 86.414062 56.429688 C 88.5 54.714844 90.625 53.054688 92.792969 51.445312 C 94.964844 49.839844 97.167969 48.285156 99.414062 46.785156 C 101.660156 45.285156 103.9375 43.84375 106.253906 42.453125 C 108.570312 41.066406 110.917969 39.734375 113.296875 38.464844 C 115.679688 37.191406 118.089844 35.976562 120.53125 34.824219 C 122.96875 33.667969 125.4375 32.574219 127.929688 31.542969 C 130.425781 30.511719 132.941406 29.539062 135.484375 28.628906 C 138.027344 27.71875 140.589844 26.875 143.171875 26.089844 C 145.753906 25.304688 148.355469 24.585938 150.972656 23.929688 C 153.59375 23.273438 156.226562 22.683594 158.875 22.15625 C 161.519531 21.628906 164.179688 21.167969 166.851562 20.773438 C 169.519531 20.375 172.199219 20.046875 174.886719 19.78125 C 177.570312 19.515625 180.261719 19.320312 182.957031 19.1875 C 185.65625 19.054688 188.351562 18.988281 191.050781 18.988281 C 193.75 18.988281 196.449219 19.054688 199.144531 19.1875 C 201.84375 19.320312 204.535156 19.515625 207.21875 19.78125 C 209.90625 20.046875 212.585938 20.375 215.253906 20.773438 C 217.925781 21.167969 220.582031 21.628906 223.230469 22.15625 C 225.878906 22.683594 228.511719 23.273438 231.128906 23.929688 C 233.75 24.585938 236.351562 25.304688 238.933594 26.089844 C 241.515625 26.875 244.078125 27.71875 246.621094 28.628906 C 249.164062 29.539062 251.679688 30.511719 254.175781 31.542969 C 256.667969 32.574219 259.136719 33.667969 261.574219 34.824219 C 264.015625 35.976562 266.425781 37.191406 268.808594 38.464844 C 271.1875 39.734375 273.535156 41.066406 275.851562 42.453125 C 278.167969 43.84375 280.445312 45.285156 282.691406 46.785156 C 284.933594 48.285156 287.140625 49.839844 289.308594 51.445312 C 291.476562 53.054688 293.605469 54.714844 295.691406 56.429688 C 297.777344 58.140625 299.824219 59.902344 301.824219 61.714844 C 303.824219 63.527344 305.777344 65.390625 307.6875 67.296875 C 309.59375 69.207031 311.457031 71.160156 313.269531 73.160156 C 315.082031 75.160156 316.84375 77.207031 318.554688 79.292969 C 320.269531 81.378906 321.929688 83.507812 323.539062 85.675781 C 325.144531 87.84375 326.699219 90.050781 328.199219 92.292969 C 329.699219 94.539062 331.140625 96.816406 332.53125 99.132812 C 333.917969 101.449219 335.25 103.796875 336.519531 106.175781 C 337.792969 108.558594 339.007812 110.96875 340.160156 113.410156 C 341.316406 115.847656 342.410156 118.316406 343.441406 120.808594 C 344.472656 123.304688 345.445312 125.820312 346.355469 128.363281 C 347.265625 130.90625 348.109375 133.46875 348.894531 136.050781 C 349.679688 138.632812 350.398438 141.234375 351.054688 143.855469 C 351.710938 146.472656 352.300781 149.105469 352.828125 151.753906 C 353.355469 154.402344 353.816406 157.058594 354.210938 159.730469 C 354.609375 162.398438 354.9375 165.078125 355.203125 167.765625 C 355.46875 170.449219 355.664062 173.140625 355.796875 175.839844 C 355.929688 178.535156 355.996094 181.234375 355.996094 183.933594 Z M 355.996094 183.933594 " fill-opacity="1" fill-rule="nonzero"/></g><g clip-path="url(#99bc1c938c)"><path fill="#ffffff" d="M 245.164062 152.199219 C 219.679688 152.199219 198.945312 131.464844 198.945312 105.980469 C 198.945312 80.496094 219.679688 59.761719 245.164062 59.761719 C 270.648438 59.761719 291.382812 80.496094 291.382812 105.980469 C 291.382812 131.464844 270.648438 152.199219 245.164062 152.199219 Z M 245.164062 68.523438 C 224.507812 68.523438 207.703125 85.328125 207.703125 105.980469 C 207.703125 126.636719 224.507812 143.441406 245.164062 143.441406 C 265.816406 143.441406 282.621094 126.636719 282.621094 105.980469 C 282.621094 85.328125 265.816406 68.523438 245.164062 68.523438 Z M 245.164062 68.523438 " fill-opacity="1" fill-rule="nonzero"/></g><path fill="#ffffff" d="M 245.339844 130.433594 L 244.984375 130.433594 C 241.933594 130.433594 239.4375 127.9375 239.4375 124.886719 L 239.4375 87.074219 C 239.4375 84.023438 241.933594 81.53125 244.984375 81.53125 L 245.339844 81.53125 C 248.390625 81.53125 250.886719 84.023438 250.886719 87.074219 L 250.886719 124.886719 C 250.886719 127.9375 248.390625 130.433594 245.339844 130.433594 Z M 245.339844 130.433594 " fill-opacity="1" fill-rule="nonzero"/><path fill="#ffffff" d="M 220.710938 105.917969 L 220.710938 106.273438 C 220.726562 109.324219 223.234375 111.808594 226.285156 111.792969 L 264.09375 111.617188 C 267.144531 111.605469 269.628906 109.097656 269.617188 106.046875 L 269.613281 105.691406 C 269.601562 102.640625 267.09375 100.15625 264.042969 100.167969 L 226.230469 100.34375 C 223.179688 100.359375 220.695312 102.867188 220.710938 105.917969 Z M 220.710938 105.917969 " fill-opacity="1" fill-rule="nonzero"/><path fill="#ffffff" d="M 204.71875 157.175781 C 204.71875 159.199219 206.34375 160.839844 208.34375 160.839844 L 225.230469 160.839844 L 225.230469 171.808594 L 208.34375 171.808594 C 207.347656 171.808594 206.441406 172.21875 205.785156 172.882812 C 205.128906 173.546875 204.71875 174.460938 204.71875 175.472656 C 204.71875 177.496094 206.34375 179.140625 208.34375 179.140625 L 225.230469 179.140625 L 225.230469 190.105469 L 208.34375 190.105469 C 207.347656 190.105469 206.441406 190.519531 205.785156 191.179688 C 205.128906 191.84375 204.71875 192.757812 204.71875 193.773438 C 204.71875 195.796875 206.34375 197.4375 208.34375 197.4375 L 225.230469 197.4375 L 225.230469 212.480469 C 225.230469 233.53125 208.34375 250.597656 187.523438 250.597656 C 166.699219 250.597656 149.820312 233.53125 149.820312 212.480469 L 149.820312 197.4375 L 166.65625 197.4375 C 168.660156 197.4375 170.28125 195.796875 170.28125 193.773438 C 170.28125 192.757812 169.878906 191.84375 169.222656 191.179688 C 168.566406 190.519531 167.660156 190.105469 166.65625 190.105469 L 149.820312 190.105469 L 149.820312 179.140625 L 166.65625 179.140625 C 168.660156 179.140625 170.28125 177.496094 170.28125 175.472656 C 170.28125 174.460938 169.878906 173.546875 169.222656 172.882812 C 168.566406 172.21875 167.660156 171.808594 166.65625 171.808594 L 149.820312 171.808594 L 149.820312 160.839844 L 166.65625 160.839844 C 168.660156 160.839844 170.28125 159.199219 170.28125 157.175781 C 170.28125 155.152344 168.660156 153.511719 166.65625 153.511719 L 149.820312 153.511719 L 149.820312 144.5 C 149.820312 123.449219 166.699219 106.382812 187.523438 106.382812 C 197.933594 106.382812 207.359375 110.652344 214.183594 117.546875 C 221.007812 124.445312 225.230469 133.972656 225.230469 144.5 L 225.230469 153.511719 L 208.34375 153.511719 C 206.34375 153.511719 204.71875 155.152344 204.71875 157.175781 " fill-opacity="1" fill-rule="nonzero"/><g clip-path="url(#6165bc4cef)"><path fill="#ffffff" d="M 240.308594 184.652344 C 237.601562 184.652344 235.40625 186.875 235.40625 189.609375 L 235.40625 212.480469 C 235.40625 219.011719 234.140625 225.351562 231.640625 231.328125 C 229.226562 237.089844 225.777344 242.269531 221.378906 246.710938 C 216.988281 251.15625 211.867188 254.640625 206.167969 257.082031 C 200.257812 259.609375 193.980469 260.886719 187.519531 260.886719 C 181.0625 260.886719 174.785156 259.609375 168.882812 257.082031 C 163.175781 254.640625 158.054688 251.15625 153.664062 246.710938 C 149.265625 242.269531 145.816406 237.089844 143.40625 231.328125 C 140.902344 225.351562 139.636719 219.011719 139.636719 212.480469 L 139.636719 189.609375 C 139.636719 186.875 137.441406 184.652344 134.734375 184.652344 C 132.027344 184.652344 129.832031 186.875 129.832031 189.609375 L 129.832031 212.480469 C 129.832031 220.34375 131.363281 227.980469 134.375 235.1875 C 137.28125 242.132812 141.4375 248.371094 146.730469 253.71875 C 152.019531 259.066406 158.1875 263.269531 165.0625 266.210938 C 170.679688 268.613281 176.566406 270.082031 182.621094 270.589844 L 182.621094 308.714844 C 182.621094 308.894531 182.632812 309.074219 182.648438 309.25 L 151.523438 309.25 C 148.816406 309.25 146.621094 311.46875 146.621094 314.207031 C 146.621094 316.941406 148.816406 319.160156 151.523438 319.160156 L 223.519531 319.160156 C 226.226562 319.160156 228.421875 316.941406 228.421875 314.207031 C 228.421875 311.46875 226.226562 309.25 223.519531 309.25 L 192.394531 309.25 C 192.414062 309.074219 192.421875 308.894531 192.421875 308.714844 L 192.421875 270.589844 C 198.476562 270.082031 204.367188 268.613281 209.984375 266.210938 C 216.855469 263.269531 223.023438 259.066406 228.3125 253.71875 C 233.605469 248.371094 237.761719 242.132812 240.667969 235.1875 C 243.679688 227.980469 245.210938 220.34375 245.210938 212.480469 L 245.210938 189.609375 C 245.210938 186.875 243.015625 184.652344 240.308594 184.652344 " fill-opacity="1" fill-rule="nonzero"/></g></svg>