<svg xmlns="http://www.w3.org/2000/svg" xmlns:xlink="http://www.w3.org/1999/xlink" width="500" zoomAndPan="magnify" viewBox="0 0 375 374.999991" height="500" preserveAspectRatio="xMidYMid meet" version="1.0"><defs><clipPath id="ab09a5fe31"><path d="M 7.40625 7.40625 L 368 7.40625 L 368 368 L 7.40625 368 Z M 7.40625 7.40625 " clip-rule="nonzero"/></clipPath><clipPath id="994ed4449b"><path d="M 91.679688 91.679688 L 282.203125 91.679688 L 282.203125 282.203125 L 91.679688 282.203125 Z M 91.679688 91.679688 " clip-rule="nonzero"/></clipPath></defs><rect x="-37.5" width="450" fill="#ffffff" y="-37.499999" height="449.999989" fill-opacity="1"/><rect x="-37.5" width="450" fill="#ffffff" y="-37.499999" height="449.999989" fill-opacity="1"/><g clip-path="url(#ab09a5fe31)"><path fill="#40a2aa" d="M 367.507812 187.457031 C 367.507812 190.40625 367.4375 193.351562 367.292969 196.292969 C 367.148438 199.234375 366.929688 202.171875 366.640625 205.105469 C 366.351562 208.039062 365.992188 210.960938 365.558594 213.878906 C 365.128906 216.792969 364.625 219.695312 364.046875 222.585938 C 363.472656 225.472656 362.828125 228.347656 362.113281 231.207031 C 361.398438 234.066406 360.609375 236.902344 359.753906 239.722656 C 358.898438 242.542969 357.976562 245.339844 356.984375 248.113281 C 355.992188 250.890625 354.929688 253.636719 353.804688 256.359375 C 352.675781 259.082031 351.480469 261.777344 350.222656 264.441406 C 348.960938 267.101562 347.636719 269.734375 346.25 272.332031 C 344.859375 274.933594 343.40625 277.496094 341.890625 280.023438 C 340.378906 282.550781 338.800781 285.039062 337.164062 287.488281 C 335.527344 289.9375 333.832031 292.347656 332.074219 294.714844 C 330.320312 297.082031 328.507812 299.402344 326.640625 301.679688 C 324.769531 303.957031 322.84375 306.1875 320.867188 308.371094 C 318.886719 310.554688 316.855469 312.6875 314.773438 314.773438 C 312.6875 316.855469 310.554688 318.886719 308.371094 320.867188 C 306.1875 322.84375 303.957031 324.769531 301.679688 326.640625 C 299.402344 328.507812 297.082031 330.320312 294.714844 332.074219 C 292.347656 333.832031 289.9375 335.527344 287.488281 337.164062 C 285.039062 338.800781 282.550781 340.378906 280.023438 341.890625 C 277.496094 343.40625 274.933594 344.859375 272.332031 346.25 C 269.734375 347.636719 267.101562 348.960938 264.441406 350.222656 C 261.777344 351.480469 259.082031 352.675781 256.359375 353.804688 C 253.636719 354.929688 250.890625 355.992188 248.113281 356.984375 C 245.339844 357.976562 242.542969 358.898438 239.722656 359.753906 C 236.902344 360.609375 234.066406 361.398438 231.207031 362.113281 C 228.347656 362.828125 225.472656 363.472656 222.585938 364.046875 C 219.695312 364.625 216.792969 365.128906 213.878906 365.558594 C 210.960938 365.992188 208.039062 366.351562 205.105469 366.640625 C 202.171875 366.929688 199.234375 367.148438 196.292969 367.292969 C 193.351562 367.4375 190.40625 367.507812 187.457031 367.507812 C 184.511719 367.507812 181.566406 367.4375 178.625 367.292969 C 175.679688 367.148438 172.742188 366.929688 169.808594 366.640625 C 166.878906 366.351562 163.953125 365.992188 161.039062 365.558594 C 158.125 365.128906 155.222656 364.625 152.332031 364.046875 C 149.441406 363.472656 146.566406 362.828125 143.710938 362.113281 C 140.851562 361.398438 138.011719 360.609375 135.191406 359.753906 C 132.371094 358.898438 129.574219 357.976562 126.800781 356.984375 C 124.027344 355.992188 121.277344 354.929688 118.554688 353.804688 C 115.832031 352.675781 113.140625 351.480469 110.476562 350.222656 C 107.8125 348.960938 105.183594 347.636719 102.582031 346.25 C 99.984375 344.859375 97.421875 343.40625 94.894531 341.890625 C 92.367188 340.378906 89.878906 338.800781 87.425781 337.164062 C 84.976562 335.527344 82.570312 333.832031 80.203125 332.074219 C 77.835938 330.320312 75.511719 328.507812 73.234375 326.640625 C 70.957031 324.769531 68.726562 322.84375 66.542969 320.867188 C 64.359375 318.886719 62.226562 316.855469 60.144531 314.773438 C 58.058594 312.6875 56.027344 310.554688 54.050781 308.371094 C 52.070312 306.1875 50.148438 303.957031 48.277344 301.679688 C 46.40625 299.402344 44.59375 297.082031 42.839844 294.714844 C 41.085938 292.347656 39.390625 289.9375 37.75 287.488281 C 36.113281 285.039062 34.539062 282.550781 33.023438 280.023438 C 31.507812 277.496094 30.058594 274.933594 28.667969 272.332031 C 27.277344 269.734375 25.953125 267.101562 24.695312 264.441406 C 23.433594 261.777344 22.242188 259.082031 21.113281 256.359375 C 19.984375 253.636719 18.925781 250.890625 17.933594 248.113281 C 16.941406 245.339844 16.015625 242.542969 15.160156 239.722656 C 14.304688 236.902344 13.519531 234.066406 12.804688 231.207031 C 12.085938 228.347656 11.441406 225.472656 10.867188 222.585938 C 10.292969 219.695312 9.789062 216.792969 9.355469 213.878906 C 8.925781 210.960938 8.5625 208.039062 8.273438 205.105469 C 7.984375 202.171875 7.769531 199.234375 7.625 196.292969 C 7.480469 193.351562 7.40625 190.40625 7.40625 187.457031 C 7.40625 184.511719 7.480469 181.566406 7.625 178.625 C 7.769531 175.679688 7.984375 172.742188 8.273438 169.808594 C 8.5625 166.878906 8.925781 163.953125 9.355469 161.039062 C 9.789062 158.125 10.292969 155.222656 10.867188 152.332031 C 11.441406 149.441406 12.085938 146.566406 12.804688 143.710938 C 13.519531 140.851562 14.304688 138.011719 15.160156 135.191406 C 16.015625 132.371094 16.941406 129.574219 17.933594 126.800781 C 18.925781 124.027344 19.984375 121.277344 21.113281 118.554688 C 22.242188 115.832031 23.433594 113.140625 24.695312 110.476562 C 25.953125 107.8125 27.277344 105.183594 28.667969 102.582031 C 30.058594 99.984375 31.507812 97.421875 33.023438 94.894531 C 34.539062 92.367188 36.113281 89.878906 37.75 87.425781 C 39.390625 84.976562 41.085938 82.570312 42.839844 80.203125 C 44.59375 77.835938 46.40625 75.511719 48.277344 73.234375 C 50.148438 70.957031 52.070312 68.726562 54.050781 66.542969 C 56.027344 64.359375 58.058594 62.226562 60.144531 60.144531 C 62.226562 58.058594 64.359375 56.027344 66.542969 54.050781 C 68.726562 52.070312 70.957031 50.148438 73.234375 48.277344 C 75.511719 46.40625 77.835938 44.59375 80.203125 42.839844 C 82.570312 41.085938 84.976562 39.390625 87.425781 37.75 C 89.878906 36.113281 92.367188 34.539062 94.894531 33.023438 C 97.421875 31.507812 99.984375 30.058594 102.582031 28.667969 C 105.183594 27.277344 107.8125 25.953125 110.476562 24.695312 C 113.140625 23.433594 115.832031 22.242188 118.554688 21.113281 C 121.277344 19.984375 124.027344 18.925781 126.800781 17.933594 C 129.574219 16.941406 132.371094 16.015625 135.191406 15.160156 C 138.011719 14.304688 140.851562 13.519531 143.710938 12.804688 C 146.566406 12.085938 149.441406 11.441406 152.332031 10.867188 C 155.222656 10.292969 158.125 9.789062 161.039062 9.355469 C 163.953125 8.925781 166.878906 8.5625 169.808594 8.273438 C 172.742188 7.984375 175.679688 7.769531 178.625 7.625 C 181.566406 7.480469 184.511719 7.40625 187.457031 7.40625 C 190.40625 7.40625 193.351562 7.480469 196.292969 7.625 C 199.234375 7.769531 202.171875 7.984375 205.105469 8.273438 C 208.039062 8.5625 210.960938 8.925781 213.878906 9.355469 C 216.792969 9.789062 219.695312 10.292969 222.585938 10.867188 C 225.472656 11.441406 228.347656 12.085938 231.207031 12.804688 C 234.066406 13.519531 236.902344 14.304688 239.722656 15.160156 C 242.542969 16.015625 245.339844 16.941406 248.113281 17.933594 C 250.890625 18.925781 253.636719 19.984375 256.359375 21.113281 C 259.082031 22.242188 261.777344 23.433594 264.441406 24.695312 C 267.101562 25.953125 269.734375 27.277344 272.332031 28.667969 C 274.933594 30.058594 277.496094 31.507812 280.023438 33.023438 C 282.550781 34.539062 285.039062 36.113281 287.488281 37.75 C 289.9375 39.390625 292.347656 41.085938 294.714844 42.839844 C 297.082031 44.59375 299.402344 46.40625 301.679688 48.277344 C 303.957031 50.148438 306.1875 52.070312 308.371094 54.050781 C 310.554688 56.027344 312.6875 58.058594 314.773438 60.144531 C 316.855469 62.226562 318.886719 64.359375 320.867188 66.542969 C 322.84375 68.726562 324.769531 70.957031 326.640625 73.234375 C 328.507812 75.511719 330.320312 77.835938 332.074219 80.203125 C 333.832031 82.570312 335.527344 84.976562 337.164062 87.425781 C 338.800781 89.878906 340.378906 92.367188 341.890625 94.894531 C 343.40625 97.421875 344.859375 99.984375 346.25 102.582031 C 347.636719 105.183594 348.960938 107.8125 350.222656 110.476562 C 351.480469 113.140625 352.675781 115.832031 353.804688 118.554688 C 354.929688 121.277344 355.992188 124.027344 356.984375 126.800781 C 357.976562 129.574219 358.898438 132.371094 359.753906 135.191406 C 360.609375 138.011719 361.398438 140.851562 362.113281 143.710938 C 362.828125 146.566406 363.472656 149.441406 364.046875 152.332031 C 364.625 155.222656 365.128906 158.125 365.558594 161.039062 C 365.992188 163.953125 366.351562 166.878906 366.640625 169.808594 C 366.929688 172.742188 367.148438 175.679688 367.292969 178.625 C 367.4375 181.566406 367.507812 184.511719 367.507812 187.457031 Z M 367.507812 187.457031 " fill-opacity="1" fill-rule="nonzero"/></g><g clip-path="url(#994ed4449b)"><path fill="#ffffff" d="M 102.316406 91.726562 C 99.492188 91.726562 96.785156 92.847656 94.789062 94.84375 C 92.792969 96.839844 91.671875 99.546875 91.671875 102.371094 C 91.671875 150.363281 110.734375 196.390625 144.671875 230.328125 C 178.609375 264.265625 224.636719 283.332031 272.628906 283.332031 C 275.453125 283.332031 278.160156 282.210938 280.15625 280.214844 C 282.152344 278.214844 283.277344 275.507812 283.277344 272.6875 L 283.277344 235.429688 C 283.277344 232.605469 282.152344 229.898438 280.15625 227.902344 C 278.160156 225.90625 275.453125 224.785156 272.628906 224.785156 C 259.429688 224.785156 246.550781 222.65625 234.628906 218.71875 C 230.902344 217.546875 226.75 218.398438 223.769531 221.378906 L 200.351562 244.796875 C 170.226562 229.46875 145.640625 204.773438 130.203125 174.648438 L 153.621094 151.125 C 156.601562 148.25 157.453125 144.097656 156.285156 140.371094 C 152.34375 128.449219 150.214844 115.570312 150.214844 102.371094 C 150.214844 99.546875 149.09375 96.839844 147.097656 94.84375 C 145.101562 92.847656 142.394531 91.726562 139.570312 91.726562 M 230.050781 91.726562 L 230.050781 123.660156 L 198.117188 123.660156 L 198.117188 144.949219 L 230.050781 144.949219 L 230.050781 176.882812 L 251.34375 176.882812 L 251.34375 144.949219 L 283.277344 144.949219 L 283.277344 123.660156 L 251.34375 123.660156 L 251.34375 91.726562 " fill-opacity="1" fill-rule="nonzero"/></g></svg>