<svg width="20" height="22" viewBox="0 0 20 22" fill="none" xmlns="http://www.w3.org/2000/svg">
<path d="M4.9933 10.2125V1.58843V1.58751H5.1933L4.9933 10.2125ZM4.9933 10.2125H0.587499C0.152042 10.2125 -0.2 10.5646 -0.2 11V17.8156C-0.2 19.6823 1.31719 21.2 3.18393 21.2L4.9933 10.2125ZM6.04276 19.625H6.04253C6.13552 19.4783 6.21762 19.324 6.28765 19.1632C6.21778 19.324 6.13577 19.4783 6.04276 19.625ZM6.04276 19.625H16.2839C17.3359 19.625 18.1901 18.7708 18.1901 17.7187V2.37501M1.37812 11.7875H4.9933V17.8156C4.9933 17.9019 4.98723 17.9867 4.9755 18.0698C4.85008 18.9468 4.09326 19.6219 3.18437 19.6219C2.18898 19.6219 1.37812 18.8087 1.37812 17.8125V11.7875Z" fill="#4BABA8" stroke="#4BABA8" stroke-width="0.4"/>
</svg>
