<svg xmlns="http://www.w3.org/2000/svg" xmlns:xlink="http://www.w3.org/1999/xlink" width="500" zoomAndPan="magnify" viewBox="0 0 375 374.999991" height="500" preserveAspectRatio="xMidYMid meet" version="1.0"><rect x="-37.5" width="450" fill="#ffffff" y="-37.499999" height="449.999989" fill-opacity="1"/><rect x="-37.5" width="450" fill="#ffffff" y="-37.499999" height="449.999989" fill-opacity="1"/><path fill="#231f20" d="M 190.167969 12.359375 C 186.019531 12.359375 181.878906 12.511719 177.742188 12.820312 C 173.605469 13.125 169.488281 13.582031 165.386719 14.191406 C 161.28125 14.800781 157.207031 15.558594 153.164062 16.46875 C 149.117188 17.378906 145.109375 18.4375 141.140625 19.640625 C 137.171875 20.847656 133.253906 22.195312 129.382812 23.691406 C 125.511719 25.183594 121.703125 26.820312 117.957031 28.59375 C 114.207031 30.371094 110.527344 32.28125 106.917969 34.328125 C 103.3125 36.371094 99.78125 38.550781 96.332031 40.855469 C 92.886719 43.164062 89.527344 45.59375 86.257812 48.148438 C 82.988281 50.703125 79.816406 53.371094 76.742188 56.160156 C 73.671875 58.949219 70.703125 61.847656 67.84375 64.851562 C 64.984375 67.859375 62.238281 70.96875 59.609375 74.175781 C 56.976562 77.386719 54.46875 80.6875 52.082031 84.082031 C 49.691406 87.476562 47.433594 90.953125 45.300781 94.515625 C 43.167969 98.078125 41.171875 101.710938 39.304688 105.417969 C 37.441406 109.128906 35.714844 112.898438 34.128906 116.734375 C 32.542969 120.570312 31.097656 124.460938 29.796875 128.402344 C 28.496094 132.34375 27.339844 136.328125 26.332031 140.355469 C 25.324219 144.382812 24.46875 148.441406 23.757812 152.53125 C 23.050781 156.625 22.492188 160.734375 22.085938 164.867188 C 21.679688 168.996094 21.425781 173.136719 21.324219 177.289062 C 21.222656 181.441406 21.273438 185.589844 21.476562 189.734375 C 21.679688 193.882812 22.035156 198.015625 22.542969 202.136719 C 23.050781 206.253906 23.707031 210.351562 24.515625 214.421875 C 25.324219 218.496094 26.285156 222.53125 27.390625 226.535156 C 28.496094 230.535156 29.746094 234.488281 31.144531 238.398438 C 32.542969 242.308594 34.082031 246.160156 35.761719 249.957031 C 37.441406 253.75 39.257812 257.480469 41.214844 261.140625 C 43.167969 264.800781 45.257812 268.386719 47.476562 271.894531 C 49.695312 275.402344 52.039062 278.824219 54.507812 282.15625 C 56.980469 285.492188 59.570312 288.730469 62.277344 291.875 C 64.988281 295.019531 67.808594 298.058594 70.738281 300.992188 C 72.695312 302.949219 74.695312 304.859375 76.742188 306.714844 C 78.792969 308.574219 80.882812 310.382812 83.019531 312.136719 C 85.15625 313.890625 87.335938 315.59375 89.554688 317.242188 C 91.777344 318.890625 94.035156 320.484375 96.332031 322.019531 C 98.632812 323.558594 100.964844 325.039062 103.335938 326.460938 C 105.707031 327.882812 108.113281 329.246094 110.550781 330.550781 C 112.988281 331.855469 115.457031 333.097656 117.953125 334.28125 C 120.453125 335.464844 122.980469 336.585938 125.535156 337.644531 C 128.085938 338.703125 130.664062 339.699219 133.269531 340.632812 C 135.871094 341.5625 138.496094 342.433594 141.140625 343.234375 C 143.785156 344.039062 146.449219 344.777344 149.128906 345.449219 C 151.808594 346.121094 154.507812 346.726562 157.21875 347.265625 C 159.929688 347.808594 162.652344 348.28125 165.386719 348.6875 C 168.121094 349.089844 170.863281 349.429688 173.613281 349.703125 C 176.363281 349.972656 179.121094 350.175781 181.878906 350.3125 C 184.640625 350.449219 187.402344 350.515625 190.167969 350.515625 C 192.933594 350.515625 195.695312 350.449219 198.453125 350.3125 C 201.214844 350.175781 203.972656 349.972656 206.722656 349.703125 C 209.472656 349.429688 212.214844 349.089844 214.949219 348.6875 C 217.683594 348.28125 220.40625 347.808594 223.117188 347.265625 C 225.828125 346.726562 228.523438 346.121094 231.207031 345.449219 C 233.886719 344.777344 236.550781 344.039062 239.195312 343.234375 C 241.839844 342.433594 244.464844 341.5625 247.066406 340.632812 C 249.667969 339.699219 252.246094 338.703125 254.800781 337.644531 C 257.355469 336.585938 259.882812 335.464844 262.378906 334.28125 C 264.878906 333.097656 267.347656 331.855469 269.785156 330.550781 C 272.222656 329.246094 274.625 327.882812 276.996094 326.460938 C 279.367188 325.039062 281.703125 323.558594 284 322.019531 C 286.300781 320.484375 288.558594 318.890625 290.777344 317.242188 C 293 315.59375 295.175781 313.890625 297.3125 312.136719 C 299.449219 310.382812 301.542969 308.574219 303.589844 306.714844 C 305.640625 304.859375 307.640625 302.949219 309.59375 300.992188 C 311.550781 299.039062 313.457031 297.035156 315.3125 294.984375 C 317.167969 292.933594 318.972656 290.839844 320.726562 288.699219 C 322.480469 286.5625 324.179688 284.378906 325.828125 282.15625 C 327.472656 279.933594 329.0625 277.671875 330.601562 275.371094 C 332.136719 273.070312 333.613281 270.734375 335.035156 268.363281 C 336.457031 265.988281 337.816406 263.582031 339.121094 261.140625 C 340.425781 258.699219 341.667969 256.230469 342.847656 253.726562 C 344.03125 251.226562 345.148438 248.699219 346.207031 246.140625 C 347.265625 243.585938 348.261719 241.003906 349.191406 238.398438 C 350.121094 235.792969 350.988281 233.167969 351.792969 230.519531 C 352.59375 227.871094 353.332031 225.207031 354.003906 222.519531 C 354.675781 219.835938 355.28125 217.136719 355.820312 214.425781 C 356.359375 211.710938 356.832031 208.984375 357.234375 206.246094 C 357.640625 203.511719 357.980469 200.765625 358.25 198.011719 C 358.523438 195.257812 358.726562 192.5 358.859375 189.734375 C 358.996094 186.972656 359.0625 184.207031 359.0625 181.4375 C 359.0625 178.671875 358.996094 175.90625 358.859375 173.140625 C 358.726562 170.378906 358.523438 167.621094 358.25 164.867188 C 357.980469 162.113281 357.640625 159.367188 357.234375 156.628906 C 356.832031 153.894531 356.359375 151.167969 355.820312 148.453125 C 355.28125 145.738281 354.675781 143.039062 354.003906 140.355469 C 353.332031 137.671875 352.59375 135.007812 351.792969 132.359375 C 350.988281 129.710938 350.121094 127.082031 349.191406 124.476562 C 348.261719 121.875 347.265625 119.292969 346.207031 116.734375 C 345.148438 114.179688 344.03125 111.648438 342.847656 109.148438 C 341.667969 106.648438 340.425781 104.175781 339.121094 101.738281 C 337.816406 99.296875 336.457031 96.890625 335.035156 94.515625 C 333.613281 92.140625 332.136719 89.804688 330.601562 87.503906 C 329.0625 85.203125 327.472656 82.941406 325.828125 80.71875 C 324.179688 78.496094 322.480469 76.316406 320.726562 74.175781 C 318.972656 72.039062 317.167969 69.945312 315.3125 67.894531 C 313.457031 65.84375 311.550781 63.839844 309.59375 61.882812 C 305.695312 57.957031 301.609375 54.230469 297.335938 50.707031 C 293.066406 47.183594 288.632812 43.878906 284.035156 40.796875 C 279.441406 37.710938 274.703125 34.863281 269.824219 32.246094 C 264.945312 29.632812 259.949219 27.265625 254.835938 25.144531 C 249.726562 23.023438 244.519531 21.164062 239.222656 19.558594 C 233.925781 17.953125 228.566406 16.613281 223.136719 15.542969 C 217.707031 14.46875 212.238281 13.664062 206.730469 13.132812 C 201.222656 12.601562 195.703125 12.34375 190.167969 12.359375 Z M 292.535156 283.917969 C 290.859375 285.59375 289.144531 287.226562 287.390625 288.820312 C 285.632812 290.414062 283.839844 291.960938 282.007812 293.46875 C 280.179688 294.972656 278.3125 296.429688 276.40625 297.84375 C 274.503906 299.257812 272.566406 300.621094 270.597656 301.9375 C 268.628906 303.257812 266.628906 304.527344 264.59375 305.746094 C 262.5625 306.964844 260.5 308.132812 258.414062 309.25 C 256.324219 310.367188 254.207031 311.433594 252.066406 312.449219 C 249.921875 313.464844 247.757812 314.425781 245.570312 315.332031 C 243.378906 316.238281 241.171875 317.09375 238.941406 317.890625 C 236.710938 318.691406 234.460938 319.433594 232.191406 320.121094 C 229.925781 320.8125 227.644531 321.445312 225.34375 322.019531 C 223.046875 322.597656 220.734375 323.117188 218.410156 323.578125 C 216.085938 324.042969 213.753906 324.445312 211.410156 324.792969 C 209.066406 325.140625 206.714844 325.433594 204.359375 325.664062 C 202 325.898438 199.636719 326.070312 197.273438 326.1875 C 194.90625 326.304688 192.539062 326.363281 190.167969 326.363281 C 187.800781 326.363281 185.429688 326.304688 183.066406 326.1875 C 180.699219 326.070312 178.335938 325.898438 175.980469 325.664062 C 173.621094 325.433594 171.269531 325.140625 168.925781 324.792969 C 166.582031 324.445312 164.25 324.039062 161.925781 323.578125 C 159.601562 323.117188 157.289062 322.597656 154.992188 322.019531 C 152.695312 321.441406 150.410156 320.8125 148.144531 320.121094 C 145.875 319.433594 143.628906 318.691406 141.398438 317.890625 C 139.167969 317.09375 136.957031 316.238281 134.769531 315.332031 C 132.578125 314.421875 130.414062 313.460938 128.273438 312.449219 C 126.128906 311.433594 124.015625 310.367188 121.925781 309.25 C 119.835938 308.132812 117.773438 306.964844 115.742188 305.746094 C 113.710938 304.523438 111.710938 303.257812 109.738281 301.9375 C 107.769531 300.621094 105.832031 299.253906 103.929688 297.84375 C 102.027344 296.429688 100.160156 294.972656 98.328125 293.464844 C 96.496094 291.960938 94.703125 290.414062 92.949219 288.820312 C 91.191406 287.226562 89.476562 285.59375 87.800781 283.914062 C 86.125 282.238281 84.492188 280.519531 82.902344 278.761719 C 81.3125 277.007812 79.761719 275.210938 78.261719 273.378906 C 76.757812 271.542969 75.300781 269.675781 73.890625 267.769531 C 72.476562 265.863281 71.113281 263.925781 69.796875 261.953125 C 68.480469 259.980469 67.214844 257.980469 65.996094 255.945312 C 64.777344 253.910156 63.609375 251.847656 62.492188 249.753906 C 61.375 247.664062 60.3125 245.546875 59.300781 243.402344 C 58.285156 241.257812 57.324219 239.089844 56.417969 236.898438 C 55.511719 234.707031 54.660156 232.496094 53.863281 230.261719 C 53.0625 228.027344 52.320312 225.777344 51.632812 223.507812 C 50.945312 221.238281 50.3125 218.953125 49.738281 216.652344 C 49.164062 214.351562 48.644531 212.039062 48.179688 209.710938 C 47.71875 207.386719 47.3125 205.050781 46.964844 202.703125 C 46.617188 200.355469 46.328125 198.003906 46.097656 195.644531 C 45.863281 193.285156 45.691406 190.917969 45.574219 188.550781 C 45.457031 186.179688 45.398438 183.808594 45.398438 181.4375 C 45.398438 179.066406 45.457031 176.695312 45.574219 174.328125 C 45.691406 171.957031 45.863281 169.59375 46.097656 167.234375 C 46.328125 164.875 46.617188 162.519531 46.964844 160.175781 C 47.3125 157.828125 47.71875 155.492188 48.179688 153.164062 C 48.644531 150.839844 49.164062 148.527344 49.738281 146.226562 C 50.3125 143.925781 50.945312 141.640625 51.632812 139.371094 C 52.320312 137.101562 53.0625 134.847656 53.863281 132.617188 C 54.660156 130.382812 55.511719 128.171875 56.417969 125.980469 C 57.324219 123.789062 58.285156 121.621094 59.300781 119.476562 C 60.3125 117.332031 61.375 115.214844 62.492188 113.121094 C 63.609375 111.03125 64.777344 108.96875 65.996094 106.933594 C 67.214844 104.898438 68.480469 102.894531 69.796875 100.921875 C 71.113281 98.953125 72.476562 97.011719 73.890625 95.109375 C 75.300781 93.203125 76.757812 91.332031 78.261719 89.5 C 79.761719 87.667969 81.3125 85.871094 82.902344 84.113281 C 84.492188 82.355469 86.125 80.640625 87.800781 78.960938 C 89.476562 77.285156 91.191406 75.648438 92.949219 74.058594 C 94.703125 72.464844 96.496094 70.914062 98.328125 69.410156 C 100.160156 67.90625 102.027344 66.449219 103.929688 65.035156 C 105.832031 63.621094 107.769531 62.257812 109.738281 60.9375 C 111.710938 59.621094 113.710938 58.351562 115.742188 57.132812 C 117.773438 55.914062 119.835938 54.746094 121.925781 53.628906 C 124.015625 52.507812 126.128906 51.441406 128.273438 50.429688 C 130.414062 49.414062 132.578125 48.453125 134.769531 47.546875 C 136.957031 46.636719 139.167969 45.785156 141.398438 44.984375 C 143.628906 44.1875 145.875 43.445312 148.144531 42.753906 C 150.410156 42.066406 152.695312 41.433594 154.992188 40.859375 C 157.289062 40.28125 159.601562 39.761719 161.925781 39.300781 C 164.25 38.835938 166.582031 38.429688 168.925781 38.082031 C 171.269531 37.734375 173.621094 37.445312 175.980469 37.210938 C 178.335938 36.980469 180.699219 36.804688 183.066406 36.6875 C 185.429688 36.574219 187.800781 36.515625 190.167969 36.515625 C 192.539062 36.515625 194.90625 36.574219 197.273438 36.6875 C 199.636719 36.804688 202 36.980469 204.359375 37.210938 C 206.714844 37.445312 209.066406 37.734375 211.410156 38.082031 C 213.753906 38.429688 216.085938 38.835938 218.410156 39.300781 C 220.734375 39.761719 223.046875 40.28125 225.34375 40.855469 C 227.644531 41.433594 229.925781 42.066406 232.191406 42.753906 C 234.460938 43.441406 236.710938 44.1875 238.941406 44.984375 C 241.171875 45.785156 243.378906 46.636719 245.570312 47.546875 C 247.757812 48.453125 249.921875 49.414062 252.066406 50.429688 C 254.207031 51.441406 256.324219 52.507812 258.414062 53.625 C 260.5 54.746094 262.5625 55.914062 264.59375 57.132812 C 266.628906 58.351562 268.628906 59.621094 270.597656 60.9375 C 272.566406 62.253906 274.503906 63.621094 276.40625 65.035156 C 278.3125 66.445312 280.179688 67.90625 282.007812 69.410156 C 283.839844 70.914062 285.632812 72.464844 287.390625 74.054688 C 289.144531 75.648438 290.859375 77.285156 292.535156 78.960938 C 294.226562 80.628906 295.871094 82.339844 297.476562 84.089844 C 299.082031 85.839844 300.644531 87.628906 302.160156 89.457031 C 303.675781 91.285156 305.148438 93.152344 306.570312 95.050781 C 307.996094 96.953125 309.371094 98.886719 310.699219 100.855469 C 312.027344 102.824219 313.308594 104.828125 314.539062 106.859375 C 315.765625 108.890625 316.945312 110.953125 318.074219 113.042969 C 319.203125 115.132812 320.277344 117.253906 321.300781 119.394531 C 322.324219 121.539062 323.292969 123.707031 324.207031 125.902344 C 325.125 128.09375 325.984375 130.308594 326.789062 132.542969 C 327.597656 134.777344 328.347656 137.03125 329.042969 139.300781 C 329.734375 141.574219 330.375 143.863281 330.957031 146.167969 C 331.539062 148.46875 332.0625 150.785156 332.527344 153.117188 C 332.996094 155.445312 333.40625 157.785156 333.753906 160.136719 C 334.105469 162.484375 334.398438 164.84375 334.632812 167.207031 C 334.871094 169.574219 335.046875 171.941406 335.164062 174.316406 C 335.28125 176.6875 335.339844 179.0625 335.339844 181.4375 C 335.339844 183.816406 335.28125 186.191406 335.164062 188.5625 C 335.046875 190.9375 334.871094 193.304688 334.632812 195.667969 C 334.398438 198.035156 334.105469 200.390625 333.757812 202.742188 C 333.40625 205.089844 332.996094 207.429688 332.527344 209.761719 C 332.0625 212.089844 331.539062 214.40625 330.957031 216.710938 C 330.375 219.015625 329.734375 221.304688 329.042969 223.574219 C 328.347656 225.847656 327.597656 228.101562 326.789062 230.335938 C 325.984375 232.570312 325.125 234.785156 324.207031 236.976562 C 323.292969 239.167969 322.324219 241.335938 321.300781 243.480469 C 320.277344 245.625 319.203125 247.742188 318.074219 249.832031 C 316.945312 251.925781 315.765625 253.984375 314.539062 256.019531 C 313.308594 258.050781 312.027344 260.050781 310.699219 262.019531 C 309.371094 263.988281 307.996094 265.925781 306.570312 267.824219 C 305.148438 269.726562 303.675781 271.589844 302.160156 273.417969 C 300.644531 275.246094 299.082031 277.035156 297.476562 278.789062 C 295.871094 280.539062 294.226562 282.246094 292.535156 283.917969 Z M 292.535156 283.917969 " fill-opacity="1" fill-rule="nonzero"/><path fill="#231f20" d="M 259.019531 112.515625 C 258.457031 111.953125 257.847656 111.453125 257.191406 111.011719 C 256.53125 110.570312 255.835938 110.199219 255.105469 109.894531 C 254.371094 109.59375 253.617188 109.363281 252.839844 109.210938 C 252.066406 109.054688 251.28125 108.976562 250.488281 108.976562 C 249.695312 108.976562 248.910156 109.054688 248.132812 109.210938 C 247.359375 109.363281 246.601562 109.59375 245.871094 109.894531 C 245.140625 110.199219 244.445312 110.570312 243.785156 111.011719 C 243.128906 111.453125 242.519531 111.953125 241.957031 112.515625 L 190.167969 164.359375 L 138.375 112.515625 C 137.816406 111.960938 137.203125 111.464844 136.546875 111.03125 C 135.886719 110.59375 135.195312 110.226562 134.464844 109.929688 C 133.734375 109.628906 132.980469 109.40625 132.207031 109.253906 C 131.433594 109.101562 130.652344 109.027344 129.863281 109.03125 C 129.074219 109.035156 128.292969 109.113281 127.519531 109.269531 C 126.746094 109.425781 125.996094 109.65625 125.265625 109.957031 C 124.539062 110.261719 123.847656 110.632812 123.191406 111.074219 C 122.535156 111.511719 121.929688 112.011719 121.371094 112.570312 C 120.8125 113.128906 120.316406 113.734375 119.875 114.390625 C 119.4375 115.046875 119.066406 115.738281 118.765625 116.46875 C 118.460938 117.199219 118.230469 117.949219 118.074219 118.722656 C 117.917969 119.496094 117.839844 120.28125 117.839844 121.070312 C 117.835938 121.859375 117.910156 122.640625 118.0625 123.417969 C 118.210938 124.191406 118.4375 124.945312 118.734375 125.675781 C 119.03125 126.40625 119.398438 127.101562 119.835938 127.761719 C 120.269531 128.417969 120.761719 129.03125 121.316406 129.59375 L 173.109375 181.4375 L 121.316406 233.285156 C 120.75 233.84375 120.246094 234.453125 119.800781 235.113281 C 119.355469 235.773438 118.976562 236.46875 118.671875 237.203125 C 118.363281 237.9375 118.128906 238.695312 117.972656 239.476562 C 117.8125 240.253906 117.734375 241.042969 117.730469 241.839844 C 117.726562 242.636719 117.804688 243.425781 117.957031 244.207031 C 118.109375 244.988281 118.335938 245.746094 118.640625 246.480469 C 118.945312 247.21875 119.316406 247.917969 119.757812 248.578125 C 120.199219 249.242188 120.699219 249.855469 121.261719 250.417969 C 121.824219 250.980469 122.4375 251.480469 123.097656 251.921875 C 123.761719 252.367188 124.460938 252.738281 125.195312 253.042969 C 125.929688 253.34375 126.6875 253.574219 127.46875 253.726562 C 128.246094 253.878906 129.035156 253.957031 129.832031 253.953125 C 130.625 253.949219 131.414062 253.871094 132.191406 253.710938 C 132.972656 253.554688 133.730469 253.320312 134.460938 253.011719 C 135.195312 252.703125 135.890625 252.328125 136.550781 251.882812 C 137.207031 251.433594 137.816406 250.929688 138.375 250.363281 L 190.167969 198.515625 L 241.957031 250.363281 C 242.519531 250.917969 243.128906 251.414062 243.789062 251.847656 C 244.445312 252.285156 245.140625 252.652344 245.871094 252.949219 C 246.601562 253.25 247.355469 253.472656 248.128906 253.625 C 248.902344 253.773438 249.683594 253.847656 250.472656 253.847656 C 251.261719 253.84375 252.042969 253.765625 252.816406 253.609375 C 253.589844 253.453125 254.339844 253.222656 255.070312 252.921875 C 255.796875 252.617188 256.488281 252.246094 257.144531 251.808594 C 257.800781 251.367188 258.40625 250.867188 258.964844 250.308594 C 259.523438 249.75 260.023438 249.144531 260.460938 248.488281 C 260.898438 247.832031 261.269531 247.140625 261.574219 246.410156 C 261.875 245.679688 262.105469 244.929688 262.261719 244.15625 C 262.417969 243.378906 262.496094 242.597656 262.5 241.808594 C 262.5 241.019531 262.425781 240.234375 262.277344 239.460938 C 262.125 238.6875 261.898438 237.933594 261.601562 237.203125 C 261.304688 236.472656 260.9375 235.777344 260.5 235.117188 C 260.066406 234.457031 259.570312 233.847656 259.019531 233.285156 L 207.226562 181.4375 L 259.019531 129.59375 C 259.578125 129.03125 260.078125 128.421875 260.519531 127.761719 C 260.960938 127.101562 261.332031 126.40625 261.632812 125.675781 C 261.9375 124.941406 262.164062 124.1875 262.320312 123.410156 C 262.476562 122.632812 262.550781 121.847656 262.550781 121.054688 C 262.550781 120.261719 262.476562 119.476562 262.320312 118.699219 C 262.164062 117.917969 261.9375 117.164062 261.632812 116.433594 C 261.332031 115.699219 260.957031 115.003906 260.519531 114.34375 C 260.078125 113.683594 259.578125 113.074219 259.019531 112.515625 Z M 259.019531 112.515625 " fill-opacity="1" fill-rule="nonzero"/></svg>