<svg width="25" height="25" viewBox="0 0 25 25" fill="none" xmlns="http://www.w3.org/2000/svg">
<path d="M11.6125 16.6125C11.5587 16.6719 11.5087 16.7345 11.4625 16.8C11.4152 16.8697 11.3774 16.9453 11.35 17.025C11.314 17.0959 11.2887 17.1717 11.275 17.25C11.2689 17.3332 11.2689 17.4168 11.275 17.5C11.2708 17.664 11.305 17.8266 11.375 17.975C11.4311 18.1301 11.5207 18.271 11.6374 18.3876C11.754 18.5043 11.8949 18.5939 12.05 18.65C12.1996 18.7161 12.3614 18.7503 12.525 18.7503C12.6886 18.7503 12.8504 18.7161 13 18.65C13.1551 18.5939 13.296 18.5043 13.4126 18.3876C13.5293 18.271 13.6189 18.1301 13.675 17.975C13.7305 17.823 13.756 17.6617 13.75 17.5C13.751 17.3355 13.7194 17.1724 13.6572 17.0201C13.595 16.8678 13.5034 16.7293 13.3875 16.6125C13.2713 16.4953 13.133 16.4023 12.9807 16.3389C12.8284 16.2754 12.665 16.2427 12.5 16.2427C12.335 16.2427 12.1716 16.2754 12.0193 16.3389C11.867 16.4023 11.7287 16.4953 11.6125 16.6125ZM12.5 0C10.0277 0 7.61099 0.733112 5.55538 2.10663C3.49976 3.48015 1.89761 5.43238 0.951511 7.71645C0.00541605 10.0005 -0.242126 12.5139 0.24019 14.9386C0.722505 17.3634 1.91301 19.5907 3.66117 21.3388C5.40933 23.087 7.63661 24.2775 10.0614 24.7598C12.4861 25.2421 14.9995 24.9946 17.2835 24.0485C19.5676 23.1024 21.5198 21.5002 22.8934 19.4446C24.2669 17.389 25 14.9723 25 12.5C25 10.8585 24.6767 9.23302 24.0485 7.71645C23.4203 6.19988 22.4996 4.8219 21.3388 3.66116C20.1781 2.50043 18.8001 1.57969 17.2835 0.951506C15.767 0.323322 14.1415 0 12.5 0ZM12.5 22.5C10.5222 22.5 8.58879 21.9135 6.9443 20.8147C5.29981 19.7159 4.01809 18.1541 3.26121 16.3268C2.50433 14.4996 2.3063 12.4889 2.69215 10.5491C3.078 8.60928 4.03041 6.82746 5.42894 5.42893C6.82746 4.03041 8.60929 3.078 10.5491 2.69215C12.4889 2.30629 14.4996 2.50433 16.3268 3.2612C18.1541 4.01808 19.7159 5.2998 20.8147 6.9443C21.9135 8.58879 22.5 10.5222 22.5 12.5C22.5 15.1522 21.4464 17.6957 19.5711 19.5711C17.6957 21.4464 15.1522 22.5 12.5 22.5ZM12.5 6.25C11.8413 6.24958 11.1942 6.42265 10.6236 6.7518C10.0531 7.08095 9.57934 7.55457 9.25 8.125C9.15956 8.26727 9.09883 8.42637 9.07147 8.59272C9.04411 8.75907 9.05068 8.92924 9.09079 9.09298C9.1309 9.25673 9.20371 9.41067 9.30486 9.54554C9.406 9.68041 9.53339 9.79344 9.67934 9.8778C9.8253 9.96217 9.98681 10.0161 10.1542 10.0365C10.3215 10.0568 10.4913 10.0431 10.6532 9.99609C10.8151 9.94912 10.9658 9.86988 11.0963 9.76315C11.2268 9.65641 11.3344 9.52438 11.4125 9.375C11.5226 9.18424 11.6812 9.02597 11.8722 8.91622C12.0632 8.80647 12.2797 8.74912 12.5 8.75C12.8315 8.75 13.1495 8.88169 13.3839 9.11611C13.6183 9.35053 13.75 9.66848 13.75 10C13.75 10.3315 13.6183 10.6495 13.3839 10.8839C13.1495 11.1183 12.8315 11.25 12.5 11.25C12.1685 11.25 11.8505 11.3817 11.6161 11.6161C11.3817 11.8505 11.25 12.1685 11.25 12.5V13.75C11.25 14.0815 11.3817 14.3995 11.6161 14.6339C11.8505 14.8683 12.1685 15 12.5 15C12.8315 15 13.1495 14.8683 13.3839 14.6339C13.6183 14.3995 13.75 14.0815 13.75 13.75V13.525C14.5767 13.225 15.2717 12.644 15.7135 11.8836C16.1552 11.1231 16.3157 10.2316 16.1667 9.36486C16.0178 8.49811 15.569 7.71127 14.8987 7.14189C14.2285 6.57251 13.3794 6.25682 12.5 6.25Z" fill="#4BABA8"/>
</svg>
