<svg xmlns="http://www.w3.org/2000/svg" xmlns:xlink="http://www.w3.org/1999/xlink" width="500" zoomAndPan="magnify" viewBox="0 0 375 374.999991" height="500" preserveAspectRatio="xMidYMid meet" version="1.0">
    <defs>
        <clipPath id="315722fd9a">
            <path d="M 9.070312 29.367188 L 366 29.367188 L 366 345.867188 L 9.070312 345.867188 Z M 9.070312 29.367188 " clip-rule="nonzero"/>
        </clipPath>
    </defs>
    <rect x="-37.5" width="450" fill="#f7f2f9" y="-37.499999" height="449.999989" fill-opacity="1"/>
    <rect x="-37.5" width="450" fill="#f7f2f9" y="-37.499999" height="449.999989" fill-opacity="1"/>
    <g clip-path="url(#315722fd9a)">
        <path fill="#000000" d="M 187.496094 345.542969 L 183.710938 342.972656 C 183.285156 342.6875 139.820312 312.996094 97 271.960938 C 71.734375 247.695312 51.535156 224.285156 36.976562 202.304688 C 18.492188 174.183594 9.070312 148.132812 9.070312 125.011719 C 9.070312 72.339844 51.964844 29.445312 104.636719 29.445312 C 124.191406 29.445312 143.101562 35.441406 159.234375 46.859375 C 170.9375 55.140625 180.5 65.703125 187.496094 77.835938 C 194.488281 65.628906 204.050781 55.066406 215.757812 46.859375 C 231.886719 35.441406 250.800781 29.445312 270.355469 29.445312 C 323.027344 29.445312 365.917969 72.339844 365.917969 125.011719 L 365.917969 125.082031 C 365.703125 148.0625 356.210938 173.898438 337.65625 201.945312 C 323.097656 223.929688 302.972656 247.335938 277.707031 271.675781 C 234.957031 312.855469 191.707031 342.6875 191.277344 342.972656 Z M 104.636719 42.792969 C 59.316406 42.792969 22.417969 79.691406 22.417969 125.011719 C 22.417969 145.492188 31.054688 168.972656 48.109375 194.808594 C 62.027344 215.933594 81.582031 238.628906 106.132812 262.183594 C 140.890625 295.511719 176.148438 321.277344 187.496094 329.269531 C 198.84375 321.207031 233.886719 295.296875 268.570312 261.898438 C 293.050781 238.273438 312.535156 215.648438 326.523438 194.523438 C 343.578125 168.6875 352.359375 145.351562 352.5 125.011719 C 352.5 79.691406 315.601562 42.863281 270.285156 42.863281 C 236.667969 42.863281 205.90625 64.132812 193.632812 95.820312 L 187.421875 111.949219 L 181.285156 95.820312 C 169.011719 64.132812 138.25 42.792969 104.636719 42.792969 Z M 104.636719 42.792969 " fill-opacity="1" fill-rule="nonzero"/>
    </g>
</svg>
