<svg xmlns="http://www.w3.org/2000/svg" width="227.762" height="84.698" viewBox="0 0 227.762 84.698">
  <g id="Groupe_103" data-name="Groupe 103" transform="translate(-148 -66)">
    <path id="Tracé_74" data-name="Tracé 74" d="M281.388,242.164h0a.649.649,0,0,0-.469-.43l-25.107-5.612a.638.638,0,0,0-.656,1l8.046,11.255-.215,13.008a.642.642,0,0,0,.353.589l.042.018a.642.642,0,0,0,.229.042.66.66,0,0,0,.48-.208l17.15-19.047a.638.638,0,0,0,.148-.614Zm-22.356-3.175,17.188,3.841-11.58,4Zm6.106,18.6.141-8.779,11.287-3.9Z" transform="translate(-45.295 -170.106)" fill="#41a2aa"/>
    <path id="Tracé_75" data-name="Tracé 75" d="M158.052,344.047a.871.871,0,0,0,.353.081h0a.871.871,0,0,0,.787-.5,10.873,10.873,0,0,1,.635-1.175.87.87,0,0,0-1.485-.9,13.326,13.326,0,0,0-.73,1.344A.875.875,0,0,0,158.052,344.047Z" transform="translate(17.813 -238.103)" fill="#41a2aa"/>
    <path id="Tracé_76" data-name="Tracé 76" d="M204.677,320.419a.868.868,0,0,0,.614.257h0a.868.868,0,0,0,.839-.656c.053-.2.106-.392.162-.578h.028c.451,0,.917.021,1.379.049a.868.868,0,0,0,.921-.815.857.857,0,0,0-.215-.628.875.875,0,0,0-.6-.293c-.6-.035-1.058-.053-1.478-.053h0a1.062,1.062,0,0,0-.148,0,.941.941,0,0,0-.2-.1.871.871,0,0,0-1.1.54c-.166.473-.31.952-.434,1.432a.868.868,0,0,0-.025.212A.85.85,0,0,0,204.677,320.419Z" transform="translate(-12.533 -222.828)" fill="#41a2aa"/>
    <path id="Tracé_77" data-name="Tracé 77" d="M155.424,355.227h.056a.871.871,0,0,0,.868-.8,11.617,11.617,0,0,1,.183-1.305.868.868,0,0,0-1.33-.9.861.861,0,0,0-.374.554,12.376,12.376,0,0,0-.212,1.481s0,.018,0,.028A.878.878,0,0,0,155.424,355.227Z" transform="translate(19.704 -245.174)" fill="#41a2aa"/>
    <path id="Tracé_78" data-name="Tracé 78" d="M209.462,309.813h0a.875.875,0,0,0,.783-.487c.194-.4.406-.8.638-1.224a.877.877,0,0,0-1.016-1.256.85.85,0,0,0-.518.416c-.243.441-.473.878-.677,1.3a.857.857,0,0,0-.092.384.871.871,0,0,0,.882.868Z" transform="translate(-15.227 -215.873)" fill="#41a2aa"/>
    <path id="Tracé_79" data-name="Tracé 79" d="M165.659,332.444a14.764,14.764,0,0,0-1.1,1.026.875.875,0,0,0,0,1.22.85.85,0,0,0,.614.254h0a.868.868,0,0,0,.621-.261c.307-.317.638-.621.981-.914a.871.871,0,0,0,.307-.593.889.889,0,0,0-.2-.635.875.875,0,0,0-1.213-.1Z" transform="translate(13.43 -232.335)" fill="#41a2aa"/>
    <path id="Tracé_80" data-name="Tracé 80" d="M155.866,367.032h.028a.824.824,0,0,0,.187-.025.854.854,0,0,0,.519-.384.868.868,0,0,0,.109-.653q-.148-.667-.233-1.333a.875.875,0,0,0-.935-.723.843.843,0,0,0-.589.307.857.857,0,0,0-.2.645,13.868,13.868,0,0,0,.261,1.489.864.864,0,0,0,.825.677Z" transform="translate(19.618 -252.831)" fill="#41a2aa"/>
    <path id="Tracé_81" data-name="Tracé 81" d="M160.141,377.665a.868.868,0,0,0-.067-.663c-.2-.388-.4-.8-.578-1.213a.857.857,0,0,0-.473-.469.875.875,0,0,0-.667,0,.839.839,0,0,0-.48.48.857.857,0,0,0,0,.667c.18.427.392.871.645,1.354a.871.871,0,0,0,.769.462h0a.871.871,0,0,0,.832-.617Z" transform="translate(17.636 -260.172)" fill="#41a2aa"/>
    <path id="Tracé_82" data-name="Tracé 82" d="M165.44,385.735a.861.861,0,0,0-.589-.314.846.846,0,0,0-.635.194.868.868,0,0,0-.12,1.224,11.287,11.287,0,0,0,1.058,1.125.868.868,0,0,0,.593.233h.063a.871.871,0,0,0,.529-1.5A10.378,10.378,0,0,1,165.44,385.735Z" transform="translate(13.695 -266.751)" fill="#41a2aa"/>
    <path id="Tracé_83" data-name="Tracé 83" d="M244.555,280.646h0a.973.973,0,0,0,.353-.081c.434-.2.861-.4,1.291-.586a.875.875,0,0,0,.434-1.1.864.864,0,0,0-.466-.48.882.882,0,0,0-.677,0c-.434.19-.875.388-1.319.6a.872.872,0,0,0,.367,1.661Z" transform="translate(-37.939 -197.435)" fill="#41a2aa"/>
    <path id="Tracé_84" data-name="Tracé 84" d="M215.787,300.214h0a.871.871,0,0,0,.667-.314c.317-.377.614-.705.921-1.016a.864.864,0,0,0,0-1.175.875.875,0,0,0-1.242-.028c-.353.353-.705.741-1,1.1a.885.885,0,0,0-.2.557A.875.875,0,0,0,215.787,300.214Z" transform="translate(-19.337 -209.804)" fill="#41a2aa"/>
    <path id="Tracé_85" data-name="Tracé 85" d="M252.245,333.213a5.351,5.351,0,0,1,.808.91.868.868,0,0,0,.705.377h0a.893.893,0,0,0,.483-.155.875.875,0,0,0,.226-1.213,7.159,7.159,0,0,0-1.058-1.213.872.872,0,0,0-1.168,1.295Z" transform="translate(-43.301 -231.978)" fill="#41a2aa"/>
    <path id="Tracé_86" data-name="Tracé 86" d="M242.335,327.013c.43.2.839.4,1.213.607a.864.864,0,0,0,.42.109h0a.871.871,0,0,0,.42-1.633c-.42-.229-.868-.455-1.33-.667a.871.871,0,1,0-.705,1.584Z" transform="translate(-36.7 -227.849)" fill="#41a2aa"/>
    <path id="Tracé_87" data-name="Tracé 87" d="M224.3,292.441h0a.846.846,0,0,0,.54-.19c.353-.275.705-.554,1.1-.825a.871.871,0,0,0-1.009-1.411c-.4.282-.794.578-1.175.882a.868.868,0,0,0,.54,1.552Z" transform="translate(-24.834 -204.924)" fill="#41a2aa"/>
    <path id="Tracé_88" data-name="Tracé 88" d="M234.066,286.019h0a.882.882,0,0,0,.441-.12c.4-.236.808-.469,1.213-.705a.871.871,0,0,0-.84-1.513c-.441.24-.868.483-1.266.705a.868.868,0,0,0,.441,1.619Z" transform="translate(-31.15 -200.857)" fill="#41a2aa"/>
    <path id="Tracé_89" data-name="Tracé 89" d="M257.221,274.047a.864.864,0,0,0-.677-.063c-.427.152-.882.317-1.354.5a.871.871,0,0,0,.3,1.69h0a.924.924,0,0,0,.3-.06c.462-.176.9-.353,1.337-.49a.871.871,0,0,0,.081-1.573Z" transform="translate(-45.025 -194.597)" fill="#41a2aa"/>
    <path id="Tracé_90" data-name="Tracé 90" d="M237.34,356.757a.885.885,0,0,0-.67-.152,7.163,7.163,0,0,1-1.249.162.843.843,0,0,0-.607.268.868.868,0,0,0,.617,1.464h.064a8.762,8.762,0,0,0,1.577-.212.871.871,0,0,0,.258-1.534Z" transform="translate(-32.054 -248.093)" fill="#41a2aa"/>
    <path id="Tracé_91" data-name="Tracé 91" d="M247.219,351.281c-.353.24-.705.487-1.125.73a.868.868,0,0,0,.437,1.619h0a.857.857,0,0,0,.437-.12c.451-.264.878-.54,1.273-.825a.872.872,0,1,0-1.026-1.411Z" transform="translate(-39.228 -244.543)" fill="#41a2aa"/>
    <path id="Tracé_92" data-name="Tracé 92" d="M176,325.762a.868.868,0,0,0-.663.053c-.437.226-.875.469-1.294.723a.885.885,0,0,0-.42.741.875.875,0,0,0,.871.875h0a.84.84,0,0,0,.437-.13c.353-.2.765-.437,1.2-.66a.868.868,0,0,0,.374-1.171.854.854,0,0,0-.5-.43Z" transform="translate(7.402 -228.111)" fill="#41a2aa"/>
    <path id="Tracé_93" data-name="Tracé 93" d="M233.013,323.575h.067a.868.868,0,0,0,.208-1.69c-.437-.145-.9-.286-1.386-.42l-.074-.021a.871.871,0,0,0-.409,1.693c.469.131.914.265,1.323.4a.8.8,0,0,0,.272.039Z" transform="translate(-29.593 -225.331)" fill="#41a2aa"/>
    <path id="Tracé_94" data-name="Tracé 94" d="M256.348,342.252a.882.882,0,0,0-1.111.575,2.96,2.96,0,0,1-.455,1,.864.864,0,0,0-.152.49.85.85,0,0,0,.254.614.861.861,0,0,0,.614.258h0a.864.864,0,0,0,.705-.381,4.61,4.61,0,0,0,.705-1.58.153.153,0,0,0,0-.039A.864.864,0,0,0,256.348,342.252Z" transform="translate(-45.034 -238.785)" fill="#41a2aa"/>
    <path id="Tracé_95" data-name="Tracé 95" d="M267.866,270.6a5.933,5.933,0,0,0-1.351.353.868.868,0,0,0,.18,1.7h.085a.78.78,0,0,0,.229-.042c.617-.183.995-.282,1.058-.3a.869.869,0,0,0-.19-1.718Z" transform="translate(-52.319 -192.433)" fill="#41a2aa"/>
    <path id="Tracé_96" data-name="Tracé 96" d="M225.3,355.821a12.431,12.431,0,0,1-1.284-.324.871.871,0,0,0-.522,1.661,14.155,14.155,0,0,0,1.478.374.92.92,0,0,0,.169.018h.056a.864.864,0,0,0,.794-.705.878.878,0,0,0-.138-.653A.864.864,0,0,0,225.3,355.821Z" transform="translate(-24.485 -247.359)" fill="#41a2aa"/>
    <path id="Tracé_97" data-name="Tracé 97" d="M198.737,319.152a.868.868,0,0,0-.97-.755,14.461,14.461,0,0,0-1.485.254.871.871,0,0,0-.427,1.464.85.85,0,0,0,.614.254h.042l.152-.021c.43-.1.875-.173,1.316-.226A.871.871,0,0,0,198.737,319.152Z" transform="translate(-6.827 -223.367)" fill="#41a2aa"/>
    <path id="Tracé_98" data-name="Tracé 98" d="M221.463,320.93h0a.868.868,0,0,0,.162-1.721c-.48-.1-.963-.176-1.439-.247a.869.869,0,1,0-.261,1.718c.455.071.917.148,1.376.236A.806.806,0,0,0,221.463,320.93Z" transform="translate(-22.092 -223.73)" fill="#41a2aa"/>
    <path id="Tracé_99" data-name="Tracé 99" d="M204.152,332.409h.074a.868.868,0,0,0,.762-.938c-.025-.275-.039-.564-.039-.861v-.441a.871.871,0,0,0-1.739-.085v.526a7.557,7.557,0,0,0,.046,1.023.868.868,0,0,0,.864.79Z" transform="translate(-11.751 -230.423)" fill="#41a2aa"/>
    <path id="Tracé_100" data-name="Tracé 100" d="M186.858,321.281a.882.882,0,0,0-.663-.049c-.476.159-.938.321-1.372.487a.871.871,0,0,0-.31,1.446.882.882,0,0,0,.607.243h0a.929.929,0,0,0,.3-.06c.416-.162.854-.317,1.3-.462a.868.868,0,0,0,.12-1.6Z" transform="translate(0.524 -225.178)" fill="#41a2aa"/>
    <path id="Tracé_101" data-name="Tracé 101" d="M214.991,350.985a9.249,9.249,0,0,1-1.076-.741.871.871,0,0,0-1.079,1.365,11.469,11.469,0,0,0,1.263.871.861.861,0,0,0,.444.123h0a.871.871,0,0,0,.441-1.619Z" transform="translate(-17.789 -243.88)" fill="#41a2aa"/>
    <path id="Tracé_102" data-name="Tracé 102" d="M206.974,341.313a.871.871,0,0,0-1.591.705,9.02,9.02,0,0,0,.748,1.383.864.864,0,0,0,.727.392h0a.85.85,0,0,0,.476-.145.871.871,0,0,0,.25-1.206,7.213,7.213,0,0,1-.61-1.129Z" transform="translate(-13.12 -237.894)" fill="#41a2aa"/>
    <path id="Tracé_103" data-name="Tracé 103" d="M177.434,413.569a28.082,28.082,0,0,0-3.548-.808c-1.1-.2-1.951-.388-2.557-.547a3.9,3.9,0,0,1-1.527-.755,1.728,1.728,0,0,1-.617-1.411,2.067,2.067,0,0,1,1.1-1.817,6.035,6.035,0,0,1,3.175-.688,9.474,9.474,0,0,1,5.249,1.439l1.411-2.607a9.852,9.852,0,0,0-2.984-1.2,15.3,15.3,0,0,0-3.637-.448,9.209,9.209,0,0,0-5.524,1.5,4.66,4.66,0,0,0-2.039,3.965,4.2,4.2,0,0,0,.995,2.984,5.527,5.527,0,0,0,2.384,1.51,24.645,24.645,0,0,0,3.587.79q1.608.275,2.487.5a3.718,3.718,0,0,1,1.457.705,1.6,1.6,0,0,1,.586,1.305q0,2.469-4.324,2.469a11.9,11.9,0,0,1-3.466-.516,9.809,9.809,0,0,1-2.915-1.372l-1.372,2.607a9.372,9.372,0,0,0,3.224,1.527,15.169,15.169,0,0,0,4.289.6,9.95,9.95,0,0,0,5.746-1.46,4.54,4.54,0,0,0,2.116-3.929,4.066,4.066,0,0,0-.959-2.882A5.333,5.333,0,0,0,177.434,413.569Z" transform="translate(12.755 -279.252)" fill="#41a2aa"/>
    <path id="Tracé_104" data-name="Tracé 104" d="M233.917,414.63a6.2,6.2,0,0,1-1.51,4.462,5.417,5.417,0,0,1-4.12,1.577,4.743,4.743,0,0,1-3.637-1.354,5.643,5.643,0,0,1-1.27-4V405.23H220.09V415.7a7.819,7.819,0,0,0,2.092,5.915,7.962,7.962,0,0,0,5.728,2.011,8.191,8.191,0,0,0,3.552-.772,6.621,6.621,0,0,0,2.624-2.18v2.744h3.122V405.23h-3.291Z" transform="translate(-22.677 -279.576)" fill="#41a2aa"/>
    <path id="Tracé_105" data-name="Tracé 105" d="M289.577,407.96v-3.055H286.42v18.183h3.294v-9.058a6.308,6.308,0,0,1,1.527-4.543,5.553,5.553,0,0,1,4.2-1.6,6.784,6.784,0,0,1,.755.035v-3.192a9.172,9.172,0,0,0-4.081.825,5.608,5.608,0,0,0-2.54,2.4Z" transform="translate(-65.611 -279.251)" fill="#41a2aa"/>
    <path id="Tracé_106" data-name="Tracé 106" d="M440.016,413.569a28.165,28.165,0,0,0-3.552-.808q-1.647-.307-2.557-.547a3.905,3.905,0,0,1-1.527-.755,1.739,1.739,0,0,1-.617-1.411,2.063,2.063,0,0,1,1.1-1.816,6.027,6.027,0,0,1,3.175-.688,9.457,9.457,0,0,1,5.249,1.439l1.411-2.607a9.778,9.778,0,0,0-2.984-1.2,15.273,15.273,0,0,0-3.637-.448,9.209,9.209,0,0,0-5.524,1.5,4.659,4.659,0,0,0-2.06,3.961,4.2,4.2,0,0,0,1,2.984,5.5,5.5,0,0,0,2.381,1.51,24.646,24.646,0,0,0,3.587.79q1.612.275,2.487.5a3.718,3.718,0,0,1,1.457.705,1.594,1.594,0,0,1,.586,1.305q0,2.469-4.324,2.469a11.912,11.912,0,0,1-3.463-.515,9.852,9.852,0,0,1-2.918-1.372l-1.372,2.607a9.371,9.371,0,0,0,3.224,1.527,15.167,15.167,0,0,0,4.289.6,9.95,9.95,0,0,0,5.746-1.46,4.543,4.543,0,0,0,2.116-3.929,4.057,4.057,0,0,0-.963-2.882,5.291,5.291,0,0,0-2.307-1.457Z" transform="translate(-157.194 -279.252)" fill="#41a2aa"/>
    <path id="Tracé_107" data-name="Tracé 107" d="M505.753,385.1h-4.187l-4.667,4.458h3.086Z" transform="translate(-201.849 -266.546)" fill="#41a2aa"/>
    <path id="Tracé_108" data-name="Tracé 108" d="M495.366,420.368l-1.82-2.116a6.746,6.746,0,0,1-5.249,2.194,6.875,6.875,0,0,1-4.476-1.457,5.689,5.689,0,0,1-2.116-3.859h14.751a9.527,9.527,0,0,0,.071-.995,10.092,10.092,0,0,0-1.15-4.871,8.342,8.342,0,0,0-3.175-3.312,9.09,9.09,0,0,0-4.649-1.185,9.262,9.262,0,0,0-4.7,1.175,8.466,8.466,0,0,0-3.259,3.312,9.623,9.623,0,0,0-1.178,4.765,9.495,9.495,0,0,0,1.217,4.8,8.441,8.441,0,0,0,3.45,3.312,11.545,11.545,0,0,0,9.21.427A7.969,7.969,0,0,0,495.366,420.368Zm-11.785-11.39a6.134,6.134,0,0,1,7.926.018,5.848,5.848,0,0,1,1.869,3.757H481.712a5.8,5.8,0,0,1,1.869-3.774Z" transform="translate(-189.885 -279.275)" fill="#41a2aa"/>
    <path id="Tracé_109" data-name="Tracé 109" d="M543.772,383.148a2.166,2.166,0,0,0-1.6.635,2.081,2.081,0,0,0-.635,1.527,2.025,2.025,0,0,0,.635,1.51,2.194,2.194,0,0,0,1.6.617,2.166,2.166,0,0,0,1.594-.635A2.116,2.116,0,0,0,546,385.24a1.975,1.975,0,0,0-.635-1.492A2.236,2.236,0,0,0,543.772,383.148Z" transform="translate(-230.743 -265.282)" fill="#41a2aa"/>
    <path id="Tracé_110" data-name="Tracé 110" d="M531.368,424.305a3.519,3.519,0,0,1-.705,2.384,2.529,2.529,0,0,1-2.01.808,4.035,4.035,0,0,1-2.674-.861l-1.058,2.54a4.614,4.614,0,0,0,1.718.825,8.756,8.756,0,0,0,2.229.272,5.59,5.59,0,0,0,4.289-1.612,6.214,6.214,0,0,0,1.51-4.423V405.23h-3.3Z" transform="translate(-219.986 -279.576)" fill="#41a2aa"/>
    <path id="Tracé_111" data-name="Tracé 111" d="M579.894,405.923a10.574,10.574,0,0,0-9.728,0,8.6,8.6,0,0,0-3.379,3.294,10.014,10.014,0,0,0,0,9.569,8.715,8.715,0,0,0,3.379,3.326,9.876,9.876,0,0,0,4.875,1.2,9.766,9.766,0,0,0,4.853-1.2,8.741,8.741,0,0,0,3.362-3.312,10.014,10.014,0,0,0,0-9.569A8.625,8.625,0,0,0,579.894,405.923Zm.462,11.425a5.665,5.665,0,0,1-2.18,2.264,6.529,6.529,0,0,1-6.279,0,5.792,5.792,0,0,1-2.194-2.264,7.333,7.333,0,0,1,0-6.7A5.7,5.7,0,0,1,571.9,408.4a6.631,6.631,0,0,1,6.279,0,5.573,5.573,0,0,1,2.18,2.247A7.478,7.478,0,0,1,580.356,417.348Z" transform="translate(-246.297 -279.256)" fill="#41a2aa"/>
    <path id="Tracé_112" data-name="Tracé 112" d="M645.469,414.63a6.2,6.2,0,0,1-1.51,4.462,5.413,5.413,0,0,1-4.116,1.577,4.736,4.736,0,0,1-3.637-1.354,5.607,5.607,0,0,1-1.252-4V405.23H631.66V415.7a7.811,7.811,0,0,0,2.1,5.915,7.97,7.97,0,0,0,5.728,2.011,8.19,8.19,0,0,0,3.552-.772,6.621,6.621,0,0,0,2.607-2.18v2.744h3.122V405.23h-3.294Z" transform="translate(-289.076 -279.576)" fill="#41a2aa"/>
    <path id="Tracé_113" data-name="Tracé 113" d="M703.675,405.557a5.619,5.619,0,0,0-2.536,2.4V404.9H698v18.183h3.291V414.03a6.308,6.308,0,0,1,1.527-4.543,5.558,5.558,0,0,1,4.2-1.6,6.838,6.838,0,0,1,.755.035v-3.192A9.206,9.206,0,0,0,703.675,405.557Z" transform="translate(-332.016 -279.251)" fill="#41a2aa"/>
    <path id="Tracé_114" data-name="Tracé 114" d="M359.2,398.717a9.7,9.7,0,0,0-6.455-2.162,12.674,12.674,0,0,0-4.853,1.037l.522-7.76h12.218V386.82H345.569l-.741,12.74,2.116,1.39.092-.049a11.252,11.252,0,0,1,5.291-1.443,6.721,6.721,0,0,1,4.476,1.46,4.691,4.691,0,0,1,1.711,3.742v.071a5.153,5.153,0,0,1-1.693,3.933,6.144,6.144,0,0,1-4.324,1.563c-2.381,0-4.786-1.164-7.153-3.46l-.127-.123-2.116,2.335.116.116a12.843,12.843,0,0,0,9.259,4.109,9.612,9.612,0,0,0,6.7-2.384,8.009,8.009,0,0,0,2.582-6.2v-.071A7.28,7.28,0,0,0,359.2,398.717Z" transform="translate(-102.298 -267.659)" fill="#41a2aa"/>
    <path id="Tracé_115" data-name="Tracé 115" d="M96.1,398.717a9.71,9.71,0,0,0-6.455-2.162,12.674,12.674,0,0,0-4.854,1.037l.519-7.76H97.534V386.82H82.469l-.748,12.726,2.116,1.39.092-.049a11.252,11.252,0,0,1,5.291-1.443A6.72,6.72,0,0,1,93.7,400.9a4.691,4.691,0,0,1,1.711,3.742v.071a5.153,5.153,0,0,1-1.679,3.933,6.145,6.145,0,0,1-4.324,1.563c-2.381,0-4.786-1.164-7.153-3.46l-.134-.116L80,408.971l.116.116a12.843,12.843,0,0,0,9.259,4.109,9.612,9.612,0,0,0,6.7-2.384,8.034,8.034,0,0,0,2.614-6.2v-.071A7.377,7.377,0,0,0,96.1,398.717Z" transform="translate(68 -267.659)" fill="#41a2aa"/>
  </g>
</svg>
