<svg width="87.332" height="87.332" xmlns="http://www.w3.org/2000/svg" xmlns:svg="http://www.w3.org/2000/svg">
  <g class="layer">
    <title>Layer 1</title>
    <g data-name="Groupe 98" id="Groupe_98">
      <g id="PictoTrait5sur5" transform="translate(242 2900)">
        <path d="m164.58,-2517.06a14.55,14.55 0 0 1 -6.5,-1.55a20.2,20.2 0 0 1 -5.56,-4.01l1.82,-1.82q5.07,5.07 10.33,5.07a9.25,9.25 0 0 0 6.65,-2.49a8.18,8.18 0 0 0 2.6,-6.18l0,-0.1a7.44,7.44 0 0 0 -2.63,-5.88a10.01,10.01 0 0 0 -6.82,-2.28a16.24,16.24 0 0 0 -7.77,2.16l-1.97,-1.28l0.99,-16.68l19.34,0l0,2.46l-17.08,0l-0.83,12.89a17.34,17.34 0 0 1 7.62,-1.86a12.48,12.48 0 0 1 8.44,2.9a9.42,9.42 0 0 1 3.37,7.48l0,0.1a10.31,10.31 0 0 1 -3.4,7.97a12.26,12.26 0 0 1 -8.6,3.1z" data-name="Tracé 116" fill="#ffffff" id="Tracé_116" transform="translate(-351.487 -310.371)"/>
        <path d="m-15.71,-2727.24a0.82,0.82 0 0 0 -1.15,0l-42.67,42.67a0.82,0.82 0 0 0 1.15,1.15l42.67,-42.67a0.82,0.82 0 0 0 0,-1.15z" data-name="Tracé 117" fill="#ffffff" id="Tracé_117" transform="translate(-163.945 -155.436)"/>
        <path d="m-20.01,-2704.02a10.02,10.02 0 0 1 6.82,2.29a7.46,7.46 0 0 1 2.1,2.9l1.41,-1.44l0.59,-0.54a9.77,9.77 0 0 0 -2.18,-2.62a12.48,12.48 0 0 0 -8.44,-2.9a17.34,17.34 0 0 0 -7.62,1.86l0.83,-12.89l17.08,0l0,-2.46l-19.34,0l-0.99,16.68l1.97,1.29a16.23,16.23 0 0 1 7.77,-2.17z" data-name="Tracé 118" fill="#ffffff" id="Tracé_118" transform="translate(-190.466 -162.204)"/>
        <path d="m-39.06,-2477.79a16.58,16.58 0 0 1 -7.87,-4.79l-1.82,1.82a20.23,20.23 0 0 0 5.57,4.01a15.66,15.66 0 0 0 2.24,0.9l1.88,-1.94z" data-name="Tracé 119" fill="#ffffff" id="Tracé_119" transform="translate(-173.681 -371.787)"/>
        <path d="m-172.97,-2786.69a43.64,43.64 0 1 1 17,-3.43a43.67,43.67 0 0 1 -17,3.43zm0,-85.56a41.91,41.91 0 1 0 29.64,12.28a41.91,41.91 0 0 0 -29.64,-12.28z" data-name="Tracé 120" fill="#ffffff" id="Tracé_120" transform="translate(-25.388 -25.982)"/>
      </g>
    </g>
  </g>
</svg>