<svg width="27" height="26" viewBox="0 0 27 26" fill="none" xmlns="http://www.w3.org/2000/svg">
<path d="M11.0645 14.9347L11.0645 14.9348C11.7181 15.5887 12.4424 16.1189 13.0604 16.4848C13.3694 16.6677 13.6492 16.808 13.8778 16.9019C14.0588 16.9763 14.1944 17.0159 14.2826 17.0304L15.49 15.8233C15.49 15.8233 15.49 15.8233 15.49 15.8233C16.0416 15.2717 16.994 15.2712 17.5457 15.8233C17.5458 15.8233 17.5458 15.8234 17.5458 15.8234L21.4876 19.7652C21.762 20.0395 21.9134 20.4054 21.9134 20.7931M11.0645 14.9347L21.7134 20.7931M11.0645 14.9347C10.4068 14.2772 9.87424 13.5483 9.50812 12.928C9.32506 12.6178 9.18521 12.3375 9.0924 12.1095C9.02083 11.9336 8.98296 11.8024 8.96882 11.717L10.1758 10.51C10.1759 10.51 10.1759 10.5099 10.176 10.5099L11.0645 14.9347ZM21.9134 20.7931H21.7134M21.9134 20.7931C21.9134 20.7929 21.9134 20.7927 21.9134 20.7926L21.7134 20.7931M21.9134 20.7931C21.9138 20.984 21.8764 21.1731 21.8033 21.3495C21.7302 21.526 21.6227 21.6863 21.4872 21.821M21.7134 20.7931C21.7138 20.9577 21.6816 21.1208 21.6186 21.2729C21.5555 21.425 21.463 21.5631 21.3462 21.6792M21.4872 21.821L21.4876 21.8206L21.3462 21.6792M21.4872 21.821L19.009 24.2993C18.3922 24.916 17.5423 25.2 16.555 25.2C15.2039 25.2 13.572 24.6704 11.8406 23.7043C10.1059 22.7364 8.25654 21.3222 6.46689 19.5323M21.4872 21.821L21.3462 21.6792M21.3462 21.6792L6.46689 19.5323M6.46689 19.5323L6.6083 19.3909L6.46687 19.5323C6.46688 19.5323 6.46689 19.5323 6.46689 19.5323ZM6.46689 19.5323C4.25098 17.3168 2.50553 14.8674 1.55795 12.6305M6.46689 19.5323L4.32002 4.65299L4.1786 4.51157L4.17849 4.51168L1.69996 6.99021C0.52232 8.16785 0.529226 10.2033 1.55795 12.6305M7.54865 10.5511L7.54868 10.551L8.61804 9.48136L5.20647 6.06978L2.99287 8.28304C2.73703 8.53903 2.60103 8.98734 2.635 9.62372C2.66869 10.255 2.86876 11.0379 3.24128 11.9169L3.05713 11.995L3.24128 11.917C4.09395 13.9292 5.69624 16.1763 7.75939 18.2395C9.95622 20.4363 12.172 21.9353 13.9898 22.7241C14.8995 23.1188 15.7008 23.3319 16.3451 23.3709C16.9936 23.4101 17.4504 23.2719 17.7162 23.0063L19.9294 20.7928L16.5175 17.3812L15.4482 18.4505L15.4481 18.4506C15.1318 18.7665 14.7093 18.8934 14.2125 18.8548C13.7222 18.8166 13.1514 18.6173 12.5084 18.2749L12.5084 18.2749C11.5819 17.7814 10.5607 17.0167 9.77165 16.2276C9.77164 16.2276 9.77163 16.2276 9.77162 16.2276L9.91304 16.0862C9.13659 15.3101 8.38442 14.3047 7.90084 13.3968L7.54865 10.5511ZM7.54865 10.5511C7.23273 10.8672 7.10569 11.2898 7.14433 11.7866C7.18247 12.2771 7.3817 12.848 7.72432 13.4908L7.54865 10.5511ZM1.55795 12.6305L1.74209 12.5525L1.55793 12.6305C1.55794 12.6305 1.55794 12.6305 1.55795 12.6305ZM26.1992 2.14292V8.21452C26.1992 9.5068 25.1486 10.5574 23.8563 10.5574H19.3251L16.0142 13.5372L16.0141 13.5373L15.8804 13.3886C15.7777 13.481 15.6505 13.5416 15.5141 13.5632C15.3777 13.5848 15.238 13.5664 15.1118 13.5102L26.1992 2.14292ZM26.1992 2.14292C26.1992 0.850642 25.1486 -0.2 23.8563 -0.2H13.4989C12.2066 -0.2 11.1559 0.850642 11.1559 2.14292V8.21452C11.1559 9.5068 12.2066 10.5574 13.4989 10.5574H14.4882M26.1992 2.14292L14.4882 10.5574M14.4882 10.5574V12.8575C14.4882 12.8575 14.4882 12.8575 14.4882 12.8575V10.5574ZM6.23436 4.51158L6.2343 4.51152L10.0348 10.3682C10.1517 10.252 10.2443 10.1139 10.3074 9.96175C10.3705 9.80958 10.4027 9.64642 10.4023 9.4817H10.6023C10.6023 9.48153 10.6023 9.48137 10.6023 9.4812C10.6022 9.09322 10.4503 8.72786 10.1761 8.45407L6.23436 4.51158ZM18.3626 8.96315L18.3623 8.9634L16.3168 10.8048V9.64313C16.3168 9.40064 16.2205 9.16809 16.049 8.99662C15.8775 8.82516 15.645 8.72883 15.4025 8.72883H13.4989C13.2154 8.72883 12.9845 8.498 12.9845 8.21452V2.14292C12.9845 1.85944 13.2154 1.62861 13.4989 1.62861H23.8563C24.1398 1.62861 24.3706 1.85944 24.3706 2.14292V8.21452C24.3706 8.498 24.1398 8.72883 23.8563 8.72883H18.974C18.7481 8.72883 18.5306 8.81255 18.3626 8.96315Z" fill="white" stroke="white" stroke-width="0.4"/>
</svg>
