<svg width="14" height="20" viewBox="0 0 14 20" fill="none" xmlns="http://www.w3.org/2000/svg">
<path d="M7 12.25C7.92826 12.25 8.8185 11.8813 9.47487 11.2249C10.1313 10.5685 10.5 9.67826 10.5 8.75V3.5C10.5 2.57174 10.1313 1.6815 9.47487 1.02513C8.8185 0.368749 7.92826 0 7 0C6.07174 0 5.1815 0.368749 4.52513 1.02513C3.86875 1.6815 3.5 2.57174 3.5 3.5V8.75C3.5 9.67826 3.86875 10.5685 4.52513 11.2249C5.1815 11.8813 6.07174 12.25 7 12.25ZM5.25 3.5C5.25 3.03587 5.43437 2.59075 5.76256 2.26256C6.09075 1.93437 6.53587 1.75 7 1.75C7.46413 1.75 7.90925 1.93437 8.23744 2.26256C8.56563 2.59075 8.75 3.03587 8.75 3.5V8.75C8.75 9.21413 8.56563 9.65925 8.23744 9.98744C7.90925 10.3156 7.46413 10.5 7 10.5C6.53587 10.5 6.09075 10.3156 5.76256 9.98744C5.43437 9.65925 5.25 9.21413 5.25 8.75V3.5ZM14 8.75C14 8.51794 13.9078 8.29538 13.7437 8.13128C13.5796 7.96719 13.3571 7.875 13.125 7.875C12.8929 7.875 12.6704 7.96719 12.5063 8.13128C12.3422 8.29538 12.25 8.51794 12.25 8.75C12.25 10.1424 11.6969 11.4777 10.7123 12.4623C9.72775 13.4469 8.39239 14 7 14C5.60761 14 4.27226 13.4469 3.28769 12.4623C2.30312 11.4777 1.75 10.1424 1.75 8.75C1.75 8.51794 1.65781 8.29538 1.49372 8.13128C1.32962 7.96719 1.10706 7.875 0.875 7.875C0.642936 7.875 0.420376 7.96719 0.256282 8.13128C0.0921874 8.29538 0 8.51794 0 8.75C0.00154507 10.4539 0.624507 12.0987 1.7521 13.3761C2.87969 14.6535 4.43448 15.4758 6.125 15.6888V17.5H4.375C4.14294 17.5 3.92038 17.5922 3.75628 17.7563C3.59219 17.9204 3.5 18.1429 3.5 18.375C3.5 18.6071 3.59219 18.8296 3.75628 18.9937C3.92038 19.1578 4.14294 19.25 4.375 19.25H9.625C9.85706 19.25 10.0796 19.1578 10.2437 18.9937C10.4078 18.8296 10.5 18.6071 10.5 18.375C10.5 18.1429 10.4078 17.9204 10.2437 17.7563C10.0796 17.5922 9.85706 17.5 9.625 17.5H7.875V15.6888C9.56552 15.4758 11.1203 14.6535 12.2479 13.3761C13.3755 12.0987 13.9985 10.4539 14 8.75Z" fill="white"/>
</svg>
