<svg xmlns="http://www.w3.org/2000/svg" xmlns:xlink="http://www.w3.org/1999/xlink" width="500" zoomAndPan="magnify" viewBox="0 0 375 374.999991" height="500" preserveAspectRatio="xMidYMid meet" version="1.0"><defs><clipPath id="ecf13c1d84"><path d="M 23.410156 23.410156 L 351.910156 23.410156 L 351.910156 351.910156 L 23.410156 351.910156 Z M 23.410156 23.410156 " clip-rule="nonzero"/></clipPath><clipPath id="38ac2ea5ee"><path d="M 221.089844 95.886719 L 313.339844 95.886719 L 313.339844 188.136719 L 221.089844 188.136719 Z M 221.089844 95.886719 " clip-rule="nonzero"/></clipPath><clipPath id="90176916ff"><path d="M 81.351562 142.109375 L 267.351562 142.109375 L 267.351562 285.359375 L 81.351562 285.359375 Z M 81.351562 142.109375 " clip-rule="nonzero"/></clipPath></defs><g clip-path="url(#ecf13c1d84)"><path fill="#f09e7a" d="M 351.578125 187.492188 C 351.578125 190.179688 351.511719 192.863281 351.378906 195.546875 C 351.246094 198.226562 351.050781 200.90625 350.789062 203.578125 C 350.523438 206.25 350.195312 208.914062 349.800781 211.570312 C 349.40625 214.226562 348.949219 216.871094 348.425781 219.503906 C 347.902344 222.136719 347.3125 224.757812 346.660156 227.363281 C 346.007812 229.96875 345.292969 232.554688 344.511719 235.125 C 343.730469 237.695312 342.890625 240.242188 341.984375 242.773438 C 341.082031 245.300781 340.113281 247.804688 339.085938 250.285156 C 338.058594 252.765625 336.972656 255.222656 335.824219 257.648438 C 334.675781 260.074219 333.46875 262.472656 332.203125 264.84375 C 330.9375 267.210938 329.613281 269.546875 328.234375 271.847656 C 326.851562 274.152344 325.417969 276.421875 323.925781 278.652344 C 322.433594 280.886719 320.886719 283.082031 319.285156 285.238281 C 317.6875 287.394531 316.035156 289.511719 314.332031 291.585938 C 312.628906 293.664062 310.875 295.695312 309.070312 297.683594 C 307.269531 299.675781 305.417969 301.621094 303.519531 303.519531 C 301.621094 305.417969 299.675781 307.269531 297.683594 309.070312 C 295.695312 310.875 293.664062 312.628906 291.585938 314.332031 C 289.511719 316.035156 287.394531 317.6875 285.238281 319.285156 C 283.082031 320.886719 280.886719 322.433594 278.652344 323.925781 C 276.421875 325.417969 274.152344 326.851562 271.847656 328.234375 C 269.546875 329.613281 267.210938 330.9375 264.84375 332.203125 C 262.472656 333.46875 260.074219 334.675781 257.648438 335.824219 C 255.222656 336.972656 252.765625 338.058594 250.285156 339.085938 C 247.804688 340.113281 245.300781 341.082031 242.773438 341.984375 C 240.242188 342.890625 237.695312 343.730469 235.125 344.511719 C 232.554688 345.292969 229.96875 346.007812 227.363281 346.660156 C 224.757812 347.3125 222.136719 347.902344 219.503906 348.425781 C 216.871094 348.949219 214.226562 349.40625 211.570312 349.800781 C 208.914062 350.195312 206.25 350.523438 203.578125 350.789062 C 200.90625 351.050781 198.226562 351.246094 195.546875 351.378906 C 192.863281 351.511719 190.179688 351.578125 187.492188 351.578125 C 184.808594 351.578125 182.125 351.511719 179.441406 351.378906 C 176.761719 351.246094 174.082031 351.050781 171.410156 350.789062 C 168.738281 350.523438 166.074219 350.195312 163.417969 349.800781 C 160.761719 349.40625 158.117188 348.949219 155.484375 348.425781 C 152.847656 347.902344 150.230469 347.3125 147.625 346.660156 C 145.019531 346.007812 142.433594 345.292969 139.863281 344.511719 C 137.292969 343.730469 134.742188 342.890625 132.214844 341.984375 C 129.6875 341.082031 127.183594 340.113281 124.703125 339.085938 C 122.222656 338.058594 119.765625 336.972656 117.339844 335.824219 C 114.910156 334.675781 112.511719 333.46875 110.144531 332.203125 C 107.777344 330.9375 105.441406 329.613281 103.136719 328.234375 C 100.835938 326.851562 98.566406 325.417969 96.332031 323.925781 C 94.101562 322.433594 91.90625 320.886719 89.75 319.285156 C 87.59375 317.6875 85.476562 316.035156 83.398438 314.332031 C 81.324219 312.628906 79.292969 310.875 77.300781 309.070312 C 75.3125 307.269531 73.367188 305.417969 71.46875 303.519531 C 69.570312 301.621094 67.71875 299.675781 65.914062 297.683594 C 64.113281 295.695312 62.359375 293.664062 60.65625 291.585938 C 58.953125 289.511719 57.300781 287.394531 55.699219 285.238281 C 54.101562 283.082031 52.554688 280.886719 51.0625 278.652344 C 49.570312 276.421875 48.136719 274.152344 46.753906 271.847656 C 45.375 269.546875 44.050781 267.210938 42.785156 264.84375 C 41.519531 262.472656 40.3125 260.074219 39.164062 257.648438 C 38.015625 255.222656 36.929688 252.765625 35.902344 250.285156 C 34.871094 247.804688 33.90625 245.300781 33.003906 242.773438 C 32.097656 240.242188 31.253906 237.695312 30.476562 235.125 C 29.695312 232.554688 28.980469 229.96875 28.328125 227.363281 C 27.675781 224.757812 27.085938 222.136719 26.5625 219.503906 C 26.039062 216.871094 25.582031 214.226562 25.1875 211.570312 C 24.792969 208.914062 24.464844 206.25 24.199219 203.578125 C 23.9375 200.90625 23.738281 198.226562 23.609375 195.546875 C 23.476562 192.863281 23.410156 190.179688 23.410156 187.492188 C 23.410156 184.808594 23.476562 182.125 23.609375 179.441406 C 23.738281 176.761719 23.9375 174.082031 24.199219 171.410156 C 24.464844 168.738281 24.792969 166.074219 25.1875 163.417969 C 25.582031 160.761719 26.039062 158.117188 26.5625 155.484375 C 27.085938 152.847656 27.675781 150.230469 28.328125 147.625 C 28.980469 145.019531 29.695312 142.433594 30.476562 139.863281 C 31.253906 137.292969 32.097656 134.742188 33.003906 132.214844 C 33.90625 129.6875 34.871094 127.183594 35.902344 124.703125 C 36.929688 122.222656 38.015625 119.765625 39.164062 117.339844 C 40.3125 114.910156 41.519531 112.511719 42.785156 110.144531 C 44.050781 107.777344 45.375 105.441406 46.753906 103.136719 C 48.136719 100.835938 49.570312 98.566406 51.0625 96.332031 C 52.554688 94.101562 54.101562 91.90625 55.699219 89.75 C 57.300781 87.59375 58.953125 85.476562 60.65625 83.398438 C 62.359375 81.324219 64.113281 79.292969 65.914062 77.300781 C 67.71875 75.3125 69.570312 73.367188 71.46875 71.46875 C 73.367188 69.570312 75.3125 67.71875 77.300781 65.914062 C 79.292969 64.113281 81.324219 62.359375 83.398438 60.65625 C 85.476562 58.953125 87.59375 57.300781 89.75 55.699219 C 91.90625 54.101562 94.101562 52.554688 96.332031 51.0625 C 98.566406 49.570312 100.835938 48.136719 103.136719 46.753906 C 105.441406 45.375 107.777344 44.050781 110.144531 42.785156 C 112.511719 41.519531 114.910156 40.3125 117.339844 39.164062 C 119.765625 38.015625 122.222656 36.929688 124.703125 35.902344 C 127.183594 34.871094 129.6875 33.90625 132.214844 33.003906 C 134.742188 32.097656 137.292969 31.253906 139.863281 30.476562 C 142.433594 29.695312 145.019531 28.980469 147.625 28.328125 C 150.230469 27.675781 152.847656 27.085938 155.484375 26.5625 C 158.117188 26.039062 160.761719 25.582031 163.417969 25.1875 C 166.074219 24.792969 168.738281 24.464844 171.410156 24.199219 C 174.082031 23.9375 176.761719 23.738281 179.441406 23.609375 C 182.125 23.476562 184.808594 23.410156 187.492188 23.410156 C 190.179688 23.410156 192.863281 23.476562 195.546875 23.609375 C 198.226562 23.738281 200.90625 23.9375 203.578125 24.199219 C 206.25 24.464844 208.914062 24.792969 211.570312 25.1875 C 214.226562 25.582031 216.871094 26.039062 219.503906 26.5625 C 222.136719 27.085938 224.757812 27.675781 227.363281 28.328125 C 229.96875 28.980469 232.554688 29.695312 235.125 30.476562 C 237.695312 31.253906 240.242188 32.097656 242.773438 33.003906 C 245.300781 33.90625 247.804688 34.871094 250.285156 35.902344 C 252.765625 36.929688 255.222656 38.015625 257.648438 39.164062 C 260.074219 40.3125 262.472656 41.519531 264.84375 42.785156 C 267.210938 44.050781 269.546875 45.375 271.847656 46.753906 C 274.152344 48.136719 276.421875 49.570312 278.652344 51.0625 C 280.886719 52.554688 283.082031 54.101562 285.238281 55.699219 C 287.394531 57.300781 289.511719 58.953125 291.585938 60.65625 C 293.664062 62.359375 295.695312 64.113281 297.683594 65.914062 C 299.675781 67.71875 301.621094 69.570312 303.519531 71.46875 C 305.417969 73.367188 307.269531 75.3125 309.070312 77.300781 C 310.875 79.292969 312.628906 81.324219 314.332031 83.398438 C 316.035156 85.476562 317.6875 87.59375 319.285156 89.75 C 320.886719 91.90625 322.433594 94.101562 323.925781 96.332031 C 325.417969 98.566406 326.851562 100.835938 328.234375 103.136719 C 329.613281 105.441406 330.9375 107.777344 332.203125 110.144531 C 333.46875 112.511719 334.675781 114.910156 335.824219 117.339844 C 336.972656 119.765625 338.058594 122.222656 339.085938 124.703125 C 340.113281 127.183594 341.082031 129.6875 341.984375 132.214844 C 342.890625 134.742188 343.730469 137.292969 344.511719 139.863281 C 345.292969 142.433594 346.007812 145.019531 346.660156 147.625 C 347.3125 150.230469 347.902344 152.847656 348.425781 155.484375 C 348.949219 158.117188 349.40625 160.761719 349.800781 163.417969 C 350.195312 166.074219 350.523438 168.738281 350.789062 171.410156 C 351.050781 174.082031 351.246094 176.761719 351.378906 179.441406 C 351.511719 182.125 351.578125 184.808594 351.578125 187.492188 Z M 351.578125 187.492188 " fill-opacity="1" fill-rule="nonzero"/></g><g clip-path="url(#38ac2ea5ee)"><path fill="#ffffff" d="M 267.308594 188.324219 C 241.824219 188.324219 221.089844 167.589844 221.089844 142.105469 C 221.089844 116.621094 241.824219 95.886719 267.308594 95.886719 C 292.796875 95.886719 313.527344 116.621094 313.527344 142.105469 C 313.527344 167.589844 292.796875 188.324219 267.308594 188.324219 Z M 267.308594 104.644531 C 246.65625 104.644531 229.851562 121.449219 229.851562 142.105469 C 229.851562 162.757812 246.65625 179.5625 267.308594 179.5625 C 287.964844 179.5625 304.769531 162.757812 304.769531 142.105469 C 304.769531 121.449219 287.964844 104.644531 267.308594 104.644531 Z M 267.308594 104.644531 " fill-opacity="1" fill-rule="nonzero"/></g><path fill="#ffffff" d="M 267.488281 166.554688 L 267.132812 166.554688 C 264.082031 166.554688 261.585938 164.0625 261.585938 161.011719 L 261.585938 123.199219 C 261.585938 120.148438 264.082031 117.652344 267.132812 117.652344 L 267.488281 117.652344 C 270.539062 117.652344 273.035156 120.148438 273.035156 123.199219 L 273.035156 161.011719 C 273.035156 164.0625 270.539062 166.554688 267.488281 166.554688 Z M 267.488281 166.554688 " fill-opacity="1" fill-rule="nonzero"/><path fill="#ffffff" d="M 242.859375 142.039062 L 242.859375 142.394531 C 242.875 145.445312 245.378906 147.929688 248.429688 147.917969 L 286.242188 147.742188 C 289.292969 147.726562 291.777344 145.21875 291.761719 142.167969 L 291.761719 141.8125 C 291.746094 138.761719 289.238281 136.277344 286.1875 136.292969 L 248.378906 136.46875 C 245.328125 136.480469 242.84375 138.988281 242.859375 142.039062 Z M 242.859375 142.039062 " fill-opacity="1" fill-rule="nonzero"/><path fill="#ffffff" d="M 174.328125 201.542969 C 161.015625 201.542969 150.183594 212.375 150.183594 225.6875 C 150.183594 239.003906 161.015625 249.835938 174.328125 249.835938 C 187.644531 249.835938 198.476562 239.003906 198.476562 225.6875 C 198.476562 212.375 187.644531 201.542969 174.328125 201.542969 Z M 174.328125 201.542969 " fill-opacity="1" fill-rule="nonzero"/><g clip-path="url(#90176916ff)"><path fill="#ffffff" d="M 243.050781 166.253906 L 215.191406 166.253906 C 215.191406 152.917969 204.382812 142.109375 191.046875 142.109375 L 157.613281 142.109375 C 144.277344 142.109375 133.46875 152.917969 133.46875 166.253906 L 105.609375 166.253906 C 92.273438 166.253906 81.460938 177.0625 81.460938 190.398438 L 81.460938 260.976562 C 81.460938 274.3125 92.273438 285.125 105.609375 285.125 L 243.050781 285.125 C 256.386719 285.125 267.195312 274.3125 267.195312 260.976562 L 267.195312 190.398438 C 267.195312 177.0625 256.386719 166.253906 243.050781 166.253906 Z M 174.328125 268.40625 C 150.773438 268.40625 131.609375 249.242188 131.609375 225.6875 C 131.609375 202.132812 150.773438 182.96875 174.328125 182.96875 C 197.886719 182.96875 217.046875 202.132812 217.046875 225.6875 C 217.046875 249.242188 197.886719 268.40625 174.328125 268.40625 Z M 174.328125 268.40625 " fill-opacity="1" fill-rule="nonzero"/></g></svg>