<svg width="22" height="22" viewBox="0 0 22 22" fill="none" xmlns="http://www.w3.org/2000/svg">
<path d="M18 1H4C3.20435 1 2.44129 1.31607 1.87868 1.87868C1.31607 2.44129 1 3.20435 1 4V18C1 18.7956 1.31607 19.5587 1.87868 20.1213C2.44129 20.6839 3.20435 21 4 21H18C18.1645 20.9977 18.3284 20.981 18.49 20.95L18.79 20.88H18.86H18.91L19.28 20.74L19.41 20.67C19.51 20.61 19.62 20.56 19.72 20.49C19.8535 20.3918 19.9805 20.2849 20.1 20.17L20.17 20.08C20.2682 19.9805 20.3585 19.8735 20.44 19.76L20.53 19.63C20.5998 19.5187 20.6601 19.4016 20.71 19.28C20.7374 19.232 20.7609 19.1818 20.78 19.13C20.83 19.01 20.86 18.88 20.9 18.75V18.6C20.9567 18.4046 20.9903 18.2032 21 18V4C21 3.20435 20.6839 2.44129 20.1213 1.87868C19.5587 1.31607 18.7956 1 18 1ZM4 19C3.73478 19 3.48043 18.8946 3.29289 18.7071C3.10536 18.5196 3 18.2652 3 18V13.69L6.29 10.39C6.38296 10.2963 6.49356 10.2219 6.61542 10.1711C6.73728 10.1203 6.86799 10.0942 7 10.0942C7.13201 10.0942 7.26272 10.1203 7.38458 10.1711C7.50644 10.2219 7.61704 10.2963 7.71 10.39L16.31 19H4ZM19 18C18.9991 18.1233 18.9753 18.2453 18.93 18.36C18.9071 18.4087 18.8804 18.4556 18.85 18.5C18.8232 18.5423 18.7931 18.5825 18.76 18.62L13.41 13.27L14.29 12.39C14.383 12.2963 14.4936 12.2219 14.6154 12.1711C14.7373 12.1203 14.868 12.0942 15 12.0942C15.132 12.0942 15.2627 12.1203 15.3846 12.1711C15.5064 12.2219 15.617 12.2963 15.71 12.39L19 15.69V18ZM19 12.86L17.12 11C16.5477 10.457 15.7889 10.1543 15 10.1543C14.2111 10.1543 13.4523 10.457 12.88 11L12 11.88L9.12 9C8.54772 8.45699 7.7889 8.15428 7 8.15428C6.2111 8.15428 5.45228 8.45699 4.88 9L3 10.86V4C3 3.73478 3.10536 3.48043 3.29289 3.29289C3.48043 3.10536 3.73478 3 4 3H18C18.2652 3 18.5196 3.10536 18.7071 3.29289C18.8946 3.48043 19 3.73478 19 4V12.86ZM12.5 5C12.2033 5 11.9133 5.08797 11.6666 5.2528C11.42 5.41762 11.2277 5.65189 11.1142 5.92597C11.0006 6.20006 10.9709 6.50166 11.0288 6.79264C11.0867 7.08361 11.2296 7.35088 11.4393 7.56066C11.6491 7.77044 11.9164 7.9133 12.2074 7.97118C12.4983 8.02906 12.7999 7.99935 13.074 7.88582C13.3481 7.77229 13.5824 7.58003 13.7472 7.33335C13.912 7.08668 14 6.79667 14 6.5C14 6.10218 13.842 5.72064 13.5607 5.43934C13.2794 5.15804 12.8978 5 12.5 5Z" fill="white" stroke="#4BABA8" stroke-width="0.3"/>
</svg>
