<svg xmlns="http://www.w3.org/2000/svg" xmlns:xlink="http://www.w3.org/1999/xlink" width="500" zoomAndPan="magnify" viewBox="0 0 375 374.999991" height="500" preserveAspectRatio="xMidYMid meet" version="1.0"><defs><clipPath id="66691f0230"><path d="M 13.175781 6.589844 L 374.675781 6.589844 L 374.675781 368.089844 L 13.175781 368.089844 Z M 13.175781 6.589844 " clip-rule="nonzero"/></clipPath></defs><rect x="-37.5" width="450" fill="#ffffff" y="-37.499999" height="449.999989" fill-opacity="1"/><rect x="-37.5" width="450" fill="#ffffff" y="-37.499999" height="449.999989" fill-opacity="1"/><g clip-path="url(#66691f0230)"><path fill="#40a2aa" d="M 193.921875 6.480469 C 94.039062 6.480469 13.066406 87.457031 13.066406 187.339844 C 13.066406 287.222656 94.039062 368.199219 193.921875 368.199219 C 293.804688 368.199219 374.785156 287.21875 374.785156 187.339844 C 374.785156 87.453125 293.804688 6.480469 193.921875 6.480469 Z M 272.644531 279.996094 L 98.375 279.996094 C 93.574219 279.996094 89.6875 276.113281 89.6875 271.3125 L 89.6875 103.367188 C 89.6875 98.566406 93.574219 94.679688 98.375 94.679688 L 289.480469 94.679688 C 294.28125 94.679688 298.167969 98.566406 298.167969 103.367188 L 298.167969 196.304688 L 277.738281 196.304688 L 277.738281 114.796875 L 109.914062 114.796875 L 109.914062 226.960938 L 119.5 226.960938 L 158.226562 166.570312 L 184.109375 206.921875 L 196.960938 226.960938 L 208.105469 226.960938 L 189.679688 198.230469 L 201.6875 179.507812 L 232.121094 226.957031 L 244.390625 226.957031 L 244.390625 269.355469 L 272.640625 269.355469 L 272.640625 279.996094 Z M 262.972656 152.425781 C 262.972656 162.351562 254.925781 170.398438 245 170.398438 C 235.074219 170.398438 227.023438 162.351562 227.023438 152.425781 C 227.023438 142.5 235.074219 134.449219 245 134.449219 C 254.925781 134.449219 262.972656 142.503906 262.972656 152.425781 Z M 304.9375 256.847656 L 304.9375 285.089844 L 285.15625 285.089844 L 285.15625 256.847656 L 256.90625 256.847656 L 256.90625 237.058594 L 285.15625 237.058594 L 285.15625 208.816406 L 304.9375 208.816406 L 304.9375 237.058594 L 333.183594 237.058594 L 333.183594 256.847656 Z M 304.9375 256.847656 " fill-opacity="1" fill-rule="nonzero"/></g></svg>