<svg xmlns="http://www.w3.org/2000/svg" xmlns:xlink="http://www.w3.org/1999/xlink" width="500" zoomAndPan="magnify" viewBox="0 0 375 374.999991" height="500" preserveAspectRatio="xMidYMid meet" version="1.0"><defs><clipPath id="ee2e71a7af"><path d="M 235.179688 95.886719 L 327.429688 95.886719 L 327.429688 188.136719 L 235.179688 188.136719 Z M 235.179688 95.886719 " clip-rule="nonzero"/></clipPath><clipPath id="4bebfabec5"><path d="M 95.441406 142.109375 L 281.441406 142.109375 L 281.441406 285.359375 L 95.441406 285.359375 Z M 95.441406 142.109375 " clip-rule="nonzero"/></clipPath></defs><g clip-path="url(#ee2e71a7af)"><path fill="#ffffff" d="M 281.398438 188.324219 C 255.914062 188.324219 235.179688 167.589844 235.179688 142.105469 C 235.179688 116.621094 255.914062 95.886719 281.398438 95.886719 C 306.882812 95.886719 327.617188 116.621094 327.617188 142.105469 C 327.617188 167.589844 306.882812 188.324219 281.398438 188.324219 Z M 281.398438 104.644531 C 260.746094 104.644531 243.941406 121.449219 243.941406 142.105469 C 243.941406 162.757812 260.746094 179.5625 281.398438 179.5625 C 302.054688 179.5625 318.859375 162.757812 318.859375 142.105469 C 318.859375 121.449219 302.054688 104.644531 281.398438 104.644531 Z M 281.398438 104.644531 " fill-opacity="1" fill-rule="nonzero"/></g><path fill="#ffffff" d="M 281.578125 166.554688 L 281.222656 166.554688 C 278.171875 166.554688 275.675781 164.0625 275.675781 161.011719 L 275.675781 123.199219 C 275.675781 120.148438 278.171875 117.652344 281.222656 117.652344 L 281.578125 117.652344 C 284.628906 117.652344 287.125 120.148438 287.125 123.199219 L 287.125 161.011719 C 287.125 164.0625 284.628906 166.554688 281.578125 166.554688 Z M 281.578125 166.554688 " fill-opacity="1" fill-rule="nonzero"/><path fill="#ffffff" d="M 256.945312 142.039062 L 256.949219 142.394531 C 256.964844 145.445312 259.46875 147.929688 262.519531 147.917969 L 300.332031 147.742188 C 303.382812 147.726562 305.867188 145.21875 305.851562 142.167969 L 305.851562 141.8125 C 305.835938 138.761719 303.328125 136.277344 300.277344 136.292969 L 262.46875 136.46875 C 259.417969 136.480469 256.933594 138.988281 256.945312 142.039062 Z M 256.945312 142.039062 " fill-opacity="1" fill-rule="nonzero"/><path fill="#ffffff" d="M 188.417969 201.542969 C 175.105469 201.542969 164.273438 212.375 164.273438 225.6875 C 164.273438 239.003906 175.105469 249.835938 188.417969 249.835938 C 201.730469 249.835938 212.5625 239.003906 212.5625 225.6875 C 212.5625 212.375 201.730469 201.542969 188.417969 201.542969 Z M 188.417969 201.542969 " fill-opacity="1" fill-rule="nonzero"/><g clip-path="url(#4bebfabec5)"><path fill="#ffffff" d="M 257.140625 166.253906 L 229.28125 166.253906 C 229.28125 152.917969 218.472656 142.109375 205.136719 142.109375 L 171.703125 142.109375 C 158.367188 142.109375 147.558594 152.917969 147.558594 166.253906 L 119.695312 166.253906 C 106.363281 166.253906 95.550781 177.0625 95.550781 190.398438 L 95.550781 260.976562 C 95.550781 274.3125 106.363281 285.125 119.695312 285.125 L 257.140625 285.125 C 270.476562 285.125 281.285156 274.3125 281.285156 260.976562 L 281.285156 190.398438 C 281.285156 177.0625 270.476562 166.253906 257.140625 166.253906 Z M 188.417969 268.40625 C 164.863281 268.40625 145.699219 249.242188 145.699219 225.6875 C 145.699219 202.132812 164.863281 182.96875 188.417969 182.96875 C 211.976562 182.96875 231.136719 202.132812 231.136719 225.6875 C 231.136719 249.242188 211.976562 268.40625 188.417969 268.40625 Z M 188.417969 268.40625 " fill-opacity="1" fill-rule="nonzero"/></g></svg>