<svg xmlns="http://www.w3.org/2000/svg" xmlns:xlink="http://www.w3.org/1999/xlink" width="500" zoomAndPan="magnify" viewBox="0 0 375 374.999991" height="500" preserveAspectRatio="xMidYMid meet" version="1.0">
    <defs>
        <clipPath id="c32d297b0e">
            <path d="M 14.089844 37.5 L 360.589844 37.5 L 360.589844 337.5 L 14.089844 337.5 Z M 14.089844 37.5 " clip-rule="nonzero"/>
        </clipPath>
    </defs>
    <g clip-path="url(#c32d297b0e)">
        <path fill="#41a2aa" d="M 187.496094 37.484375 C 91.742188 37.484375 14.117188 102.898438 14.117188 183.585938 C 14.117188 217 27.425781 247.792969 49.820312 272.40625 L 32.382812 337.484375 L 113.492188 315.75 C 135.9375 324.6875 161.023438 329.691406 187.496094 329.691406 C 283.25 329.691406 360.875 264.277344 360.875 183.585938 C 360.875 102.898438 283.25 37.484375 187.496094 37.484375 Z M 91.707031 228.332031 C 82.65625 228.332031 73.722656 225.980469 69.253906 223.511719 L 72.898438 208.703125 C 77.71875 211.171875 85.125 213.640625 92.765625 213.640625 C 100.992188 213.640625 105.34375 210.230469 105.34375 205.058594 C 105.34375 200.121094 101.582031 197.300781 92.058594 193.890625 C 78.894531 189.308594 70.3125 182.019531 70.3125 170.5 C 70.3125 156.984375 81.597656 146.636719 100.289062 146.636719 C 109.222656 146.636719 115.804688 148.519531 120.507812 150.632812 L 116.507812 165.09375 C 111.273438 162.558594 105.75 161.304688 99.933594 161.332031 C 92.175781 161.332031 88.414062 164.859375 88.414062 168.972656 C 88.414062 174.027344 92.882812 176.261719 103.109375 180.140625 C 117.097656 185.3125 123.679688 192.597656 123.679688 203.765625 C 123.679688 217.046875 113.453125 228.332031 91.707031 228.332031 Z M 213.535156 227.15625 L 212.359375 196.828125 C 212.007812 187.308594 211.652344 175.789062 211.652344 164.269531 L 211.300781 164.269531 C 208.832031 174.378906 205.542969 185.664062 202.484375 194.949219 L 192.847656 225.863281 L 178.859375 225.863281 L 170.394531 195.183594 C 167.808594 185.898438 165.105469 174.613281 163.222656 164.269531 L 162.988281 164.269531 C 162.519531 174.964844 162.167969 187.191406 161.578125 197.0625 L 160.167969 227.15625 L 143.59375 227.15625 L 148.648438 147.929688 L 172.511719 147.929688 L 180.269531 174.378906 C 182.738281 183.546875 185.207031 193.421875 186.96875 202.707031 L 187.320312 202.707031 C 189.554688 193.539062 192.257812 183.074219 194.84375 174.261719 L 203.308594 147.929688 L 226.703125 147.929688 L 231.050781 227.15625 Z M 274.097656 228.332031 C 265.046875 228.332031 256.113281 225.980469 251.644531 223.511719 L 255.289062 208.703125 C 260.105469 211.171875 267.515625 213.640625 275.15625 213.640625 C 283.382812 213.640625 287.734375 210.230469 287.734375 205.058594 C 287.734375 200.121094 283.96875 197.300781 274.449219 193.890625 C 261.28125 189.308594 252.703125 182.019531 252.703125 170.5 C 252.703125 156.984375 263.988281 146.636719 282.675781 146.636719 C 291.609375 146.636719 298.195312 148.519531 302.894531 150.632812 L 298.898438 165.09375 C 293.664062 162.558594 288.140625 161.304688 282.324219 161.332031 C 274.566406 161.332031 270.804688 164.859375 270.804688 168.972656 C 270.804688 174.027344 275.273438 176.261719 285.5 180.140625 C 299.488281 185.3125 306.070312 192.597656 306.070312 203.765625 C 306.070312 217.046875 295.84375 228.332031 274.097656 228.332031 Z M 274.097656 228.332031 " fill-opacity="1" fill-rule="nonzero"/>
    </g>
</svg>
